<svg width="62" height="50" fill="none" xmlns="http://www.w3.org/2000/svg"><path fill-rule="evenodd" clip-rule="evenodd" d="M51.91 0H31.287a2.325 2.325 0 00-2.308 2.019h-3.003a1.998 1.998 0 00-2.002 1.99v.164h-3.152c-2.73 0-5 1.982-5.43 4.573H1.274c-.495 0-.897.4-.897.892 0 .493.402.893.897.893h14.117c.43 2.592 2.702 4.576 5.431 4.576h3.152v.165c0 1.097.898 1.989 2.002 1.989h3.003a2.325 2.325 0 002.308 2.02h1.35c.22 1.496.566 3.968-.88 6.254-.375.588-.277 1.032-.128 1.3.148.269.47.589 1.163.589h3.753l-1.053 10.582h-3.558c-3.333 0-6.044 2.69-6.044 5.997v4.472c0 .84.688 1.525 1.534 1.525h23.01c.847 0 1.535-.684 1.535-1.525v-8.944c0-.841-.688-1.525-1.535-1.525h-2.486c.032-2.36.195-4.612.486-6.705a.893.893 0 00-.766-1.006.896.896 0 00-1.011.761 56.267 56.267 0 00-.503 6.95h-8.859l1.133-11.38v-.008l.731-7.338h11.174c-1.269 2.28-2.232 4.84-2.928 7.777a.892.892 0 00.874 1.097.896.896 0 00.872-.688c.75-3.162 1.82-5.849 3.265-8.2 5.121-.261 9.207-4.48 9.207-9.628C61.623 4.324 57.265 0 51.91 0zm-3.657 17.495h3.657c4.366 0 7.919-3.524 7.919-7.857 0-4.33-3.553-7.853-7.92-7.853h-3.656v6.157a.895.895 0 01-.897.893.895.895 0 01-.898-.893V1.785h-15.17a.538.538 0 00-.534.527v14.655c0 .287.244.528.534.528h15.171v-5.44c0-.493.402-.893.898-.893.495 0 .897.4.897.893v5.44zm-22.485-2.224V4.008c0-.113.094-.204.208-.204h2.982v11.672h-2.982a.21.21 0 01-.208-.205zm-8.657-5.633c0 2.032 1.665 3.684 3.711 3.684h3.152V5.957h-3.152c-2.046 0-3.71 1.652-3.71 3.681zm19.612 16h-2.977c1.175-2.428.918-4.857.703-6.358h2.907l-.633 6.359zm-9.04 22.577h22.492V39.79H31.934c-2.344 0-4.25 1.89-4.25 4.213v4.212z" fill="#360F76"/></svg>