<svg width="61" height="60" fill="none" xmlns="http://www.w3.org/2000/svg"><path d="M27.628 40.695c.458-.458.458-1.2 0-1.658a1.173 1.173 0 100 1.658z" fill="#F22387"/><path d="M13.52 59.654a1.175 1.175 0 001.657.01l5.691-5.597a3.535 3.535 0 00.836-3.635l1.224-1.178a3.505 3.505 0 012.444-.986h15.605a10.52 10.52 0 007.37-2.988c.08-.079-.62.745 10.645-12.693a4.686 4.686 0 00-.557-6.605 4.714 4.714 0 00-6.588.523L44.92 33.61a4.72 4.72 0 00-3.649-1.744h-13.09a15.17 15.17 0 00-5.878-1.171c-5.65 0-10.587 2.604-13.237 7.49a3.51 3.51 0 00-3.14.972l-5.583 5.59a1.17 1.17 0 00-.002 1.651l13.18 13.255zm8.783-26.616c1.798 0 3.536.36 5.167 1.073.149.065.31.099.471.099h13.33a2.352 2.352 0 012.348 2.342 2.348 2.348 0 01-2.348 2.344h-9.577a1.172 1.172 0 100 2.343h9.577a4.696 4.696 0 004.654-5.3c6.7-6.873 7.645-7.84 7.686-7.887a2.359 2.359 0 013.31-.28 2.345 2.345 0 01.275 3.307L46.667 43.641a8.182 8.182 0 01-5.69 2.284H25.373a5.84 5.84 0 00-4.075 1.643l-.998.96-9.196-9.177c2.15-4.024 6.182-6.313 11.199-6.313zM7.588 40.812a1.173 1.173 0 011.453-.164c.18.108 10.22 10.154 10.282 10.237a1.175 1.175 0 01-.108 1.52l-4.852 4.77-11.534-11.6 4.759-4.763zM30.19 24.38c6.72 0 12.189-5.469 12.189-12.19C42.379 5.468 36.91 0 30.189 0c-2.757 0-5.357.898-7.52 2.596a12.218 12.218 0 00-3.06 3.536A12.19 12.19 0 0018 12.19c0 6.721 5.468 12.19 12.19 12.19zM21.607 7.277a9.925 9.925 0 012.483-2.87 9.787 9.787 0 016.098-2.104c5.451 0 9.886 4.434 9.886 9.886 0 5.451-4.435 9.886-9.886 9.886-5.45 0-9.886-4.435-9.886-9.886a9.88 9.88 0 011.305-4.912z" fill="#F22387"/><path d="M31.21 16.132c-.464.276-1.067.374-1.476.374-.777 0-1.458-.915-1.458-1.958a1.152 1.152 0 00-2.303 0c0 1.994 1.215 3.673 2.851 4.135a1.15 1.15 0 002.299-.05c1.663-.431 3.099-1.67 3.099-3.834 0-2.596-2.65-4.011-4.011-4.011-.017 0-1.708-.15-1.708-1.232 0-1.66 1.69-1.707 1.708-1.707.32 0 .71.19 1.016.497.148.148.164.163.164.784a1.15 1.15 0 001.151 1.149c.636 0 1.152-.518 1.152-1.154 0-.736 0-1.57-.838-2.408a4.05 4.05 0 00-1.735-1.04 1.151 1.151 0 00-2.3.067v.075c-1.259.468-2.621 1.585-2.621 3.737 0 2.639 2.743 3.531 4.003 3.535.346.028 1.715.634 1.715 1.707 0 .632-.218 1.043-.707 1.334z" fill="#F22387"/></svg>