<svg width="24" height="30" fill="none" xmlns="http://www.w3.org/2000/svg"><path d="M13.596 12.735a2.124 2.124 0 00-.73-.395 4.304 4.304 0 00-.942-.091h-1.398c-.243 0-.395.06-.517.152-.091.091-.152.274-.152.517v3.92c0 .183 0 .305.061.426.03.122.091.183.182.243.091.061.244.092.456.092h1.398c.244 0 .456-.03.67-.061.181-.03.364-.091.546-.152.183-.091.335-.183.456-.304.183-.183.335-.365.456-.578a2.58 2.58 0 00.274-.73c.06-.273.09-.546.09-.88 0-.943-.273-1.672-.85-2.159zm-.79 3.77c-.092.06-.183.12-.274.151-.122.03-.213.061-.304.061h-1.246V13.07h.73c.334 0 .607.03.85.121.244.061.426.243.578.517.152.274.243.669.243 1.185-.03.79-.213 1.307-.577 1.611z" fill="#242424"/><path d="M23.261 5.988l-.03-.03v-.03L17.456.151l-.03-.03s-.03 0-.03-.03c0 0-.031 0-.031-.031C17.274 0 17.182 0 17.06 0H2.745a2.02 2.02 0 00-1.429.578l-.03.03a2.123 2.123 0 00-.608 1.459v25.866c0 .578.243 1.094.608 1.46.364.364.911.607 1.459.607h18.51c.578 0 1.095-.243 1.46-.608.364-.365.607-.912.607-1.459V6.292a.907.907 0 00-.06-.304zm-5.623-3.8l3.435 3.435H18.55c-.243 0-.486-.091-.638-.273a.948.948 0 01-.274-.639V2.188zm4.377 25.745a.761.761 0 01-.243.547.761.761 0 01-.547.243H2.745a.874.874 0 01-.548-.212.732.732 0 01-.212-.547V2.035c0-.212.09-.395.243-.547l.03-.03c.152-.122.335-.213.517-.213h13.617V4.68c0 .608.243 1.155.669 1.58a2.25 2.25 0 001.58.639h3.374v21.033z" fill="#242424"/><path d="M8.459 12.675c-.152-.152-.334-.243-.578-.304-.212-.06-.547-.091-.942-.091H5.541c-.243 0-.426.06-.517.152-.121.09-.152.273-.152.516v4.134c0 .213.061.365.152.486.091.122.243.152.395.152.152 0 .274-.06.396-.182a.774.774 0 00.152-.486v-1.52H6.97c.668 0 1.155-.152 1.489-.425.334-.274.517-.7.517-1.247 0-.243-.03-.486-.122-.699-.122-.182-.243-.364-.395-.486zm-.73 1.702a.772.772 0 01-.395.274 2.02 2.02 0 01-.638.09h-.73v-1.64h.73c.486 0 .79.09.973.243.152.152.212.334.212.577-.03.183-.06.335-.152.456zm8.329-2.158c-.183.03-.304.06-.396.121a.367.367 0 00-.212.213c-.061.091-.061.213-.061.395v4.104c0 .212.06.395.152.486.091.122.243.152.395.152a.64.64 0 00.395-.152.773.773 0 00.152-.486v-1.763h1.793c.152 0 .274-.03.365-.122.091-.06.122-.182.122-.304a.39.39 0 00-.122-.304.652.652 0 00-.364-.121h-1.794V13.07h2.128c.182 0 .304-.03.395-.122a.39.39 0 00.122-.304.39.39 0 00-.122-.304c-.091-.09-.213-.121-.395-.121h-2.553z" fill="#242424"/></svg>