<svg width="21" height="21" fill="none" xmlns="http://www.w3.org/2000/svg"><path d="M7.38 14.124l4.775 4.776c.867-2.848-.353-5.63-.367-5.66a.357.357 0 01.054-.376l4.787-5.628a.357.357 0 01.327-.12c.012.001 2.062.244 2.994-.264l-5.8-5.802c-.215.411-.429 2.083-.277 3.004a.355.355 0 01-.12.328L8.137 9.16a.359.359 0 01-.393.045C7.717 9.191 5.12 7.891 2.1 8.843l5.28 5.281z" stroke="#360F76" stroke-width="2" stroke-linejoin="round"/><path d="M6.961 14.04L1.79 19.21" stroke="#360F76" stroke-width="2" stroke-linecap="round" stroke-linejoin="round"/></svg>