<svg fill="none" xmlns="http://www.w3.org/2000/svg" viewBox="0 0 40 40"><path d="M19.95 40A19.94 19.94 0 010 20.05a19.94 19.94 0 1139.9-.1A19.96 19.96 0 0119.95 40z" fill="#360F76"/><path d="M19.95 11.02c2.94 0 3.25 0 4.4.1 1.06 0 1.69.22 2 .43.53.2.84.42 1.26.84.42.42.63.73.84 1.26.1.42.32.94.42 2 .1 1.15.1 1.46.1 4.4 0 2.94 0 3.26-.1 4.41 0 1.05-.2 1.68-.42 2-.2.52-.42.84-.84 1.26-.42.42-.73.63-1.26.84-.42.1-.94.31-2 .42-1.15 0-1.46.1-4.4.1-2.94 0-3.26 0-4.41-.1a3.72 3.72 0 01-2-.42 3.32 3.32 0 01-1.26-.84 3.32 3.32 0 01-.84-1.26c-.1-.42-.31-.95-.42-2-.1-1.15-.1-1.47-.1-4.4 0-2.95 0-3.26.1-4.42 0-1.05.21-1.68.42-2 .21-.52.42-.83.84-1.25.42-.42.74-.63 1.26-.84.42-.1.95-.32 2-.42 1.15-.1 1.47-.1 4.4-.1zm0-2c-2.94 0-3.36 0-4.52.11-1.15.1-2 .21-2.62.53-.74.31-1.37.63-1.9 1.26a9.86 9.86 0 00-1.25 1.89 8.25 8.25 0 00-.53 2.62c-.1 1.16-.1 1.58-.1 4.52 0 2.94 0 3.36.1 4.51.1 1.16.21 2 .53 2.63.31.73.63 1.36 1.26 1.89.63.63 1.26.94 1.89 1.26.73.31 1.47.42 2.62.52 1.16.1 1.58.1 4.52.1 2.94 0 3.36 0 4.51-.1 1.16-.1 2-.2 2.63-.52a4.61 4.61 0 001.89-1.26c.63-.63.94-1.26 1.26-1.9.31-.73.42-1.46.52-2.62.1-1.15.1-1.57.1-4.51 0-2.94 0-3.36-.1-4.52-.1-1.15-.2-2-.52-2.62a4.61 4.61 0 00-1.26-1.9 9.86 9.86 0 00-1.9-1.25 8.25 8.25 0 00-2.62-.53c-1.15-.1-1.47-.1-4.51-.1z" fill="#fff"/><path d="M19.95 14.38a5.65 5.65 0 00-5.67 5.67 5.65 5.65 0 005.67 5.67 5.65 5.65 0 005.67-5.67 5.65 5.65 0 00-5.67-5.67zm0 9.24c-2 0-3.68-1.68-3.68-3.67 0-2 1.68-3.68 3.68-3.68s3.67 1.68 3.67 3.68c0 2.1-1.57 3.67-3.67 3.67zm7.25-9.45c0 .74-.64 1.37-1.37 1.37-.74 0-1.37-.63-1.37-1.37 0-.73.63-1.36 1.37-1.36.73 0 1.36.63 1.36 1.36z" fill="#fff"/></svg>