<svg width="89" height="43" fill="none" xmlns="http://www.w3.org/2000/svg"><g clip-path="url(#clip0)" fill="#242424"><path d="M53.108 25.588c-1.275 1.465-2.848 2.631-4.72 3.499-1.87.84-4.027 1.261-6.468 1.261-2.224 0-4.285-.366-6.183-1.098-1.872-.733-3.499-1.763-4.882-3.092-1.383-1.356-2.468-2.97-3.254-4.841-.787-1.871-1.18-3.933-1.18-6.184 0-2.305.393-4.393 1.18-6.265.813-1.87 1.925-3.457 3.335-4.76 1.41-1.328 3.065-2.345 4.964-3.05C37.798.353 39.846 0 42.042 0c2.035 0 4.028.366 5.98 1.098 1.98.706 3.58 1.75 4.801 3.133l-4.72 4.719a5.84 5.84 0 00-2.562-1.994 8.5 8.5 0 00-3.255-.65c-1.22 0-2.345.23-3.376.691a7.681 7.681 0 00-2.604 1.83c-.732.787-1.301 1.723-1.708 2.808-.407 1.058-.61 2.224-.61 3.498 0 1.302.203 2.495.61 3.58s.963 2.02 1.668 2.807c.732.76 1.6 1.356 2.603 1.79 1.004.434 2.102.651 3.295.651 1.384 0 2.59-.271 3.621-.813 1.03-.543 1.858-1.248 2.482-2.116l4.84 4.556zm29.098 3.987l.163-20.381h-.122l-7.485 20.381H69.88L62.598 9.194h-.122l.163 20.381h-6.55V.773h9.886l6.55 18.47h.162L78.952.772H89v28.802h-6.794zM.851 41.848H0v-6.203h3.623v.753H.851v5.45zM4.6 35.645h1.887c.322 0 .617.035.886.105.27.064.5.167.693.307.193.14.342.318.448.534.105.216.158.473.158.771 0 .298-.056.558-.167.78a1.54 1.54 0 01-.465.543 2.04 2.04 0 01-.702.315c-.269.07-.561.106-.877.106H5.45v2.742H4.6v-6.203zm.852 2.76h.956c.439 0 .78-.085 1.027-.254.251-.17.377-.43.377-.78 0-.362-.126-.622-.377-.78-.252-.157-.591-.236-1.018-.236h-.965v2.05zm4.7-2.76l1.833 3.82 1.764-3.82h.947l-2.307 4.853a5.692 5.692 0 01-.334.596c-.117.175-.248.33-.394.465a1.601 1.601 0 01-.5.297 1.626 1.626 0 01-.632.114c-.27 0-.48-.032-.632-.096a1.86 1.86 0 01-.36-.184l.448-.666c.064.047.149.094.254.14.106.047.234.07.386.07a.69.69 0 00.492-.201c.14-.14.277-.339.412-.596l-2.325-4.792h.948zm10.04 0v6.203h-.851v-5.45h-2.974v5.45h-.851v-6.203h4.676zm6.228 0v6.203h-.85v-5.45h-2.975v5.45h-.85v-6.203h4.675zm1.737 6.203h-.93l2.667-6.203h.825l2.65 6.203h-.957l-.632-1.525h-3l-.623 1.525zm.904-2.26H31.5l-1.211-2.997-1.228 2.996zm7.308 2.26v-6.203h.85v2.54c.141 0 .276.006.404.018.135.006.267.015.395.026l2.246-2.584h.93l-2.307 2.786c.684.234 1.22.63 1.605 1.191.386.561.655 1.303.807 2.226h-.938a5.735 5.735 0 00-.378-1.332 2.605 2.605 0 00-.614-.911 2.204 2.204 0 00-.912-.517c-.351-.11-.763-.16-1.237-.149v2.909h-.851zm12.337-3.11c0 .479-.082.92-.246 1.322a3.129 3.129 0 01-.684 1.034c-.292.286-.64.511-1.044.675-.398.157-.83.236-1.298.236a3.56 3.56 0 01-1.307-.236 3.206 3.206 0 01-1.036-.675 3.132 3.132 0 01-.684-1.034 3.481 3.481 0 01-.246-1.322c0-.48.082-.917.246-1.315.164-.397.392-.738.684-1.025a3.09 3.09 0 011.035-.665c.404-.164.84-.246 1.308-.246.468 0 .9.082 1.298.246.404.157.752.38 1.044.666.293.286.52.627.684 1.024.164.398.246.836.246 1.315zm-.904 0a2.71 2.71 0 00-.166-.955 2.428 2.428 0 00-.474-.798 2.255 2.255 0 00-.746-.543 2.326 2.326 0 00-.982-.201c-.363 0-.69.067-.983.201a2.255 2.255 0 00-.746.543 2.426 2.426 0 00-.473.798 2.71 2.71 0 00-.167.955c0 .344.056.668.167.972.11.304.269.57.473.797.205.228.454.41.746.544.293.128.62.192.983.192.362 0 .69-.064.982-.193.293-.134.541-.315.746-.543.205-.227.363-.493.474-.797a2.81 2.81 0 00.166-.972zm5.322 1.743h.018l1.895-4.836h1.272v6.203h-.842l.008-5.134h-.026l-2.079 5.134h-.518l-2.07-5.134h-.026l.008 5.134h-.824v-6.203h1.263l1.921 4.836zm9.425-4.836v6.203h-.85v-5.45h-2.975v5.45h-.851v-6.203h4.676zm1.737 6.203h-.93l2.667-6.203h.825l2.65 6.203h-.957l-.632-1.525h-3l-.623 1.525zm.904-2.26h2.439l-1.211-2.997-1.228 2.996zm5.114-3.943h.851v2.602h3.141v-2.602h.851v6.203h-.85V39h-3.142v2.848h-.85v-6.203zm7.277 4.985l3.352-4.985h1.017v6.203h-.85v-5.011h-.018l-3.351 5.01h-1.018v-6.202h.85v4.985h.018zm7.479-6.755a1.126 1.126 0 001.07.71 1.133 1.133 0 001.07-.71l.527.263a1.27 1.27 0 01-.22.385 1.51 1.51 0 01-.342.324 1.79 1.79 0 01-.465.21 1.982 1.982 0 01-.57.08c-.205 0-.395-.027-.57-.08a1.984 1.984 0 01-.465-.21 1.508 1.508 0 01-.342-.324 1.593 1.593 0 01-.22-.385l.527-.263zm2.65 1.77h1.043v6.202h-.85v-5.01h-.018l-3.334 5.01h-1.035v-6.202h.85c0 .835-.002 1.664-.008 2.488v2.48h.026l3.325-4.968z"/><path fill-rule="evenodd" clip-rule="evenodd" d="M0 1.523v28.802h6.916V17.836c1.654-.054 3.105.163 4.353.65a7.768 7.768 0 013.213 2.238c.896 1.004 1.641 2.306 2.238 3.906.624 1.6 1.139 3.498 1.546 5.695h7.567c-.434-2.305-.963-4.353-1.587-6.143-.624-1.817-1.356-3.403-2.197-4.76-.84-1.355-1.776-2.495-2.807-3.417a14.155 14.155 0 00-3.163-2.212c-.903-.346-2.408-.9-3.347-1.132-1.256-.31-3.162-.553-3.613-.609l-.006.007a14.34 14.34 0 00-1.099-.04 14.34 14.34 0 00-1.098-.041V1.523H0zm10.405 8.994l6.755 1.536 8.347-10.53H17.94l-7.535 8.994z"/></g><defs><clipPath id="clip0"><path fill="#fff" d="M0 0h89v43H0z"/></clipPath></defs></svg>