<svg xmlns="http://www.w3.org/2000/svg" width="24" height="24" fill="none"><path d="M22 16.9v3c0 .3-.1.6-.2.8-.1.3-.2.5-.4.7-.3.2-.5.3-.8.4-.2.1-.5.1-.8.1-3.1-.3-6-1.4-8.6-3-2.4-1.6-4.5-3.6-6-6-1.7-2.7-2.8-5.6-3.1-8.7 0-.3 0-.6.1-.8.1-.3.2-.5.4-.7.2-.3.4-.4.7-.5.3-.1.5-.2.8-.2h3c.5 0 1 .2 1.3.5.4.3.6.7.7 1.2.1 1 .4 1.9.7 2.8.1.4.2.8.1 1.2-.1.3-.3.7-.5.9L8.1 9.9c1.4 2.5 3.5 4.6 6 6l1.3-1.3c.2-.2.6-.4.9-.5.4-.1.8 0 1.2.1.9.3 1.8.6 2.8.7.5.1.9.3 1.2.7.3.4.5.8.5 1.3z" stroke-linejoin="round" stroke-width="2" stroke="#360f76"/></svg>