<svg xmlns="http://www.w3.org/2000/svg" viewBox="0 0 64 64" width="512" height="512"><path d="M54.903 22.245a.413.413 0 00-.245-.165c-.267-.06-17.828 4.435-18.019 4.508-1 .43-1.25.82-4.64 9.623-.515-1.336-3.191-8.002-3.514-8.576a2.78 2.78 0 00-.744-.83c-.485-.341-17.973-4.733-18.251-4.741-.329-.01-.577.233-.458.795 0 0 2.357 7.503 3.155 10.249.571 2-.179 24.024.514 25.434.278.54.685.982 1.236 1.274.476.238 16.893 4.179 17.186 4.211.525.05 1.365.051 1.872-.014.376-.057 16.668-3.974 17.162-4.25a2.927 2.927 0 001.425-2.192c.009-.105.012-23.647.02-23.69.069-.31.308-1.113.398-1.419.537-1.8 2.988-9.716 2.988-9.716.021-.18.017-.348-.085-.5zm-42.867 3.556l-.358-1.147 14.918 3.785c.28.234 3.048 7.214 3.18 7.55.118.3.227.61.36.904-10.142-2.335-14.166-3.382-15.826-3.56-.319-1.279-1.874-6.248-2.274-7.532zm2.381 31.685c-.036-.14 0-16.584-.038-22.171 1.958.588 6.492 1.508 16.702 3.847-.239 1.964-.09 7.467-.083 22.802-2.402-.563-16.094-3.863-16.264-3.998a.995.995 0 01-.317-.48zm34.753.546c-.13.072-12.968 3.19-16.17 3.891.008-15.942.18-21.24-.107-22.99l16.727-3.607c-.035 5.606.012 22.066-.085 22.285a.966.966 0 01-.365.42zM51.962 25.8c-.453 1.456-1.901 6.084-2.257 7.46l-15.74 3.395c.09-.22.17-.447.257-.668.132-.335 2.9-7.312 3.18-7.55l14.919-3.784-.359 1.147z" data-original="#000000" class="active-path" data-old_color="#000000" fill="#360F76"/><path d="M25.164 54.077c-5.93-.988-6.932-1.493-7.151-.178-.218 1.305.86 1.157 6.821 2.15a1 1 0 00.33-1.972zM22 11.735h5.5c0 9-.583 10.164.762 10.164 6.906 0 7.764.497 7.764-.835v-9.33h5.973c.404 0 .77-.079.924-.452.414-1-.085-.875-10.217-11.008-1-1-1.198-.34-11.414 9.877-.629.629-.182 1.584.707 1.584zm10-9.422l7.585 7.422h-4.086c-1.333 0-1 1-1 10h-5.473v-8.671c0-1.294-1.014-1.083-4.85-1.083L32 2.313z" data-original="#000000" class="active-path" data-old_color="#000000" fill="#360F76"/></svg>