<svg width="50" height="31" fill="none" xmlns="http://www.w3.org/2000/svg"><path d="M49.96 29.34c0 .909-.757 1.66-1.673 1.66H1.673A1.677 1.677 0 010 29.34V1.66C0 .752.757 0 1.673 0h46.654C49.243 0 50 .751 50 1.66v27.68h-.04z" fill="#F9F9F9"/><path d="M22.988 20.166h-2.43l1.514-9.332h2.47l-1.554 9.332zm-4.502-9.332l-2.31 6.406-.28-1.384-.836-4.192s-.08-.83-1.156-.83H10.04l-.04.158s1.195.237 2.55 1.068l2.151 8.106h2.55l3.864-9.332h-2.629zm19.204 9.331h2.23l-1.952-9.292h-1.952c-.916 0-1.116.712-1.116.712l-3.625 8.58h2.55l.518-1.384h3.107l.24 1.384zm-2.67-3.321l1.275-3.48.717 3.48H35.02zm-3.586-3.756l.359-2.017s-1.076-.395-2.191-.395c-1.196 0-4.104.514-4.104 3.084 0 2.412 3.386 2.451 3.386 3.677 0 1.265-3.027 1.028-4.024.237l-.358 2.096s1.076.514 2.749.514 4.183-.87 4.183-3.203c0-2.412-3.426-2.649-3.426-3.677.04-1.028 2.39-.87 3.426-.316z" fill="#0066B2"/><path d="M15.896 15.856l-.836-4.192s-.08-.83-1.156-.83H10.04l-.04.158s1.833.396 3.626 1.82c1.713 1.344 2.27 3.044 2.27 3.044z" fill="#F9A533"/></svg>