<svg width="62" height="50" viewBox="0 0 62 50" fill="none" xmlns="http://www.w3.org/2000/svg">
<path fill-rule="evenodd" clip-rule="evenodd" d="M51.9095 0H31.2865C30.1031 0 29.1252 0.882338 28.9792 2.01905H25.9764C24.8722 2.01905 23.9738 2.9115 23.9738 4.00848V4.17278H20.8223C18.0928 4.17278 15.822 6.15543 15.3915 8.74605H1.27411C0.77864 8.74605 0.376953 9.14546 0.376953 9.63838C0.376953 10.1313 0.77864 10.5307 1.27411 10.5307H15.3915C15.8218 13.1231 18.0927 15.1073 20.8223 15.1073H23.9738V15.2716C23.9738 16.3686 24.8722 17.261 25.9764 17.261H28.9792C29.1252 18.3978 30.1031 19.2801 31.2865 19.2801H32.6364C32.8566 20.7772 33.2033 23.2489 31.7562 25.5352C31.3816 26.1229 31.4801 26.5668 31.629 26.8356C31.7773 27.1039 32.0995 27.4236 32.792 27.4236H36.5454L35.4922 38.0056H31.9341C28.6012 38.0056 25.8897 40.6959 25.8897 44.0028V48.4751C25.8897 49.3159 26.5781 50 27.4243 50H50.4345C51.2807 50 51.9692 49.3159 51.9692 48.4751V39.5306C51.9692 38.6898 51.2807 38.0056 50.4345 38.0056H47.9477C47.9805 35.6457 48.1433 33.3937 48.4342 31.3008C48.5021 30.8125 48.1592 30.362 47.6684 30.2946C47.1771 30.2273 46.7247 30.5682 46.6569 31.0563C46.3549 33.2291 46.1866 35.5634 46.1535 38.0056H37.2953L38.4278 26.6261L38.4286 26.6184L39.159 19.28H50.3331C49.0644 21.5607 48.101 24.1199 47.4048 27.0567C47.291 27.5363 47.5898 28.0169 48.0721 28.13C48.1414 28.1463 48.2107 28.154 48.2788 28.154C48.6856 28.154 49.0539 27.8771 49.1512 27.4662C49.9007 24.3045 50.9707 21.6172 52.4157 19.2669C57.5374 19.0047 61.623 14.7862 61.623 9.63838C61.6228 4.32377 57.2654 0 51.9095 0ZM48.2528 17.4952H51.9095C56.276 17.4952 59.8285 13.9706 59.8285 9.63826C59.8285 5.30771 56.276 1.78466 51.9095 1.78466H48.2528V7.94223C48.2528 8.43516 47.8511 8.83457 47.3556 8.83457C46.8601 8.83457 46.4585 8.43516 46.4585 7.94223V1.78466H31.2865C30.9971 1.78466 30.7527 2.02643 30.7527 2.31245V2.91138V16.3685V16.9674C30.7527 17.2535 30.9971 17.4952 31.2865 17.4952H38.3421H38.3433H46.4585V12.0545C46.4585 11.5615 46.8601 11.1621 47.3556 11.1621C47.8511 11.1621 48.2528 11.5615 48.2528 12.0545V17.4952ZM25.7681 15.2714V14.2147V5.065V4.00836C25.7681 3.89545 25.8616 3.8036 25.9764 3.8036H28.9584V15.476H25.9764C25.8635 15.4761 25.7681 15.3824 25.7681 15.2714ZM17.1113 9.63826C17.1113 11.6697 18.7761 13.3225 20.8223 13.3225L23.9738 13.3224V5.95733H20.8223C18.7761 5.95733 17.1113 7.60862 17.1113 9.63826ZM36.7229 25.6387H33.7456C34.9207 23.2096 34.6636 20.7812 34.4493 19.2799H37.3557L36.7229 25.6387ZM27.6839 48.2152H50.1747L50.1746 44.8951L50.1747 43.1104V39.7902H31.934C29.5905 39.7902 27.6839 41.6799 27.6839 44.0027V48.2152Z" fill="#360F76"/>
</svg>
