<svg width="15" height="13" viewBox="0 0 15 13" fill="none" xmlns="http://www.w3.org/2000/svg">
<path d="M13.0248 1.88141C12.7056 1.56204 12.3266 1.30869 11.9094 1.13584C11.4923 0.96299 11.0451 0.874023 10.5936 0.874023C10.142 0.874023 9.6949 0.96299 9.27773 1.13584C8.86057 1.30869 8.48155 1.56204 8.16233 1.88141L7.49983 2.54391L6.83733 1.88141C6.19252 1.23661 5.31798 0.874358 4.40608 0.874358C3.49418 0.874358 2.61964 1.23661 1.97483 1.88141C1.33002 2.52622 0.967773 3.40077 0.967773 4.31266C0.967773 5.22456 1.33002 6.09911 1.97483 6.74391L2.63733 7.40641L7.49983 12.2689L12.3623 7.40641L13.0248 6.74391C13.3442 6.42469 13.5976 6.04567 13.7704 5.62851C13.9433 5.21135 14.0322 4.76422 14.0322 4.31266C14.0322 3.86111 13.9433 3.41398 13.7704 2.99682C13.5976 2.57966 13.3442 2.20064 13.0248 1.88141V1.88141Z" stroke="#242424" stroke-linecap="round" stroke-linejoin="round"/>
</svg>
