<svg width="61" height="60" viewBox="0 0 61 60" fill="none" xmlns="http://www.w3.org/2000/svg">
<path d="M27.6276 40.6952C28.0858 40.237 28.0858 39.4954 27.6276 39.0372C27.169 38.5803 26.426 38.5803 25.9668 39.0372C25.5091 39.4954 25.5091 40.237 25.9668 40.6952C26.426 41.1521 27.169 41.1521 27.6276 40.6952Z" fill="#F22387"/>
<path d="M13.5207 59.6535C13.9757 60.1112 14.7164 60.1163 15.1774 59.6631L20.8684 54.0674C21.8353 53.1024 22.1293 51.6737 21.7041 50.4318L22.9283 49.2535C23.5874 48.6182 24.4552 48.268 25.3725 48.268H40.9774C43.7459 48.268 46.3626 47.2069 48.3463 45.2802C48.4279 45.201 47.7266 46.0254 58.9922 32.5873C60.6631 30.6143 60.4131 27.6517 58.4345 25.9822C56.4682 24.3283 53.5227 24.5659 51.8472 26.505L44.9205 33.6104C44.0459 32.536 42.7121 31.8663 41.271 31.8663H28.1813C26.3187 31.0886 24.3423 30.6949 22.3031 30.6949C16.6524 30.6949 11.7159 33.2986 9.06621 38.1857C7.95029 37.9747 6.77337 38.3116 5.92668 39.1567L0.342505 44.7464C-0.113403 45.2028 -0.11432 45.9412 0.34067 46.3985L13.5207 59.6535ZM22.3027 33.0377C24.1006 33.0377 25.8389 33.3989 27.4704 34.1112C27.619 34.1762 27.7791 34.2096 27.941 34.2096H41.271C42.5438 34.2096 43.6189 35.2455 43.6189 36.5524C43.6189 37.8447 42.5658 38.8957 41.271 38.8957H31.6937C31.0456 38.8957 30.52 39.4203 30.52 40.0671C30.52 40.7144 31.0456 41.2386 31.6937 41.2386H41.271C43.8601 41.2386 45.9663 39.1365 45.9663 36.5524C45.9663 36.3464 45.9516 36.1423 45.925 35.9399C52.6256 29.0657 53.5704 28.0998 53.6108 28.0518C54.4474 27.0662 55.9325 26.9412 56.9204 27.7725C57.9093 28.607 58.0345 30.0884 57.1956 31.0794L46.6671 43.6414C45.1297 45.1144 43.1111 45.9251 40.9774 45.9251H25.3725C23.8433 45.9251 22.3958 46.5088 21.2977 47.5676L20.3002 48.5285L11.104 39.3507C13.2533 35.3265 17.2863 33.0377 22.3027 33.0377ZM7.58795 40.8124C7.97506 40.426 8.56948 40.3565 9.04144 40.6476C9.22078 40.7565 19.2608 50.8017 19.3228 50.8846C19.6663 51.3464 19.6172 52.0024 19.215 52.4043L14.3633 57.1747L2.82936 45.5754L7.58795 40.8124Z" fill="#F22387"/>
<path d="M30.1894 24.3792C36.9108 24.3792 42.3789 18.9111 42.3789 12.1898C42.3789 5.46844 36.9108 0 30.1894 0C27.4324 0 24.8319 0.897948 22.6688 2.59623C22.1746 2.98383 21.707 3.41306 21.2785 3.87245C20.6375 4.55901 20.0758 5.3195 19.6096 6.13167C18.5563 7.9674 18 10.0626 18 12.1898C18 18.9111 23.4681 24.3792 30.1894 24.3792ZM21.6076 7.27797C21.9859 6.61869 22.4413 6.00175 22.962 5.44439C23.3098 5.07115 23.6899 4.72302 24.0908 4.40827C25.845 3.03156 27.9539 2.30373 30.1894 2.30373C35.6403 2.30373 40.0755 6.7382 40.0755 12.1898C40.0755 17.641 35.6403 22.0758 30.1894 22.0758C24.7382 22.0758 20.303 17.641 20.303 12.1898C20.303 10.4639 20.7541 8.76558 21.6076 7.27797Z" fill="#F22387"/>
<path d="M31.2108 16.1318C30.7464 16.4078 30.1431 16.5058 29.734 16.5058C28.9573 16.5058 28.2765 15.5906 28.2765 14.5477C28.2765 13.9117 27.7608 13.396 27.1248 13.396C26.4885 13.396 25.9731 13.9117 25.9731 14.5477C25.9731 16.5424 27.1884 18.2206 28.8242 18.6825C28.8615 19.2851 29.3604 19.7627 29.9723 19.7627C30.6007 19.7627 31.1107 19.2592 31.1229 18.6333C32.7864 18.2016 34.2219 16.963 34.2219 14.7985C34.2219 12.2034 31.5719 10.7876 30.2109 10.7876C30.1937 10.7876 28.503 10.6372 28.503 9.55584C28.503 7.89525 30.1937 7.84859 30.2109 7.84859C30.5311 7.84859 30.9205 8.03881 31.2273 8.34566C31.3748 8.49352 31.3906 8.50896 31.3906 9.12984C31.3906 9.7658 31.9067 10.279 32.5423 10.279C33.1783 10.279 33.6944 9.76149 33.6944 9.12517C33.6944 8.38909 33.6944 7.55502 32.8563 6.71665C32.3525 6.21348 31.7488 5.8553 31.1207 5.67658C31.0856 5.07184 30.586 4.59164 29.9723 4.59164C29.3363 4.59164 28.8206 5.10773 28.8206 5.74369V5.81906C27.5623 6.28669 26.1996 7.40428 26.1996 9.55584C26.1996 12.1948 28.9426 13.087 30.2027 13.0906C30.5487 13.1186 31.9182 13.7251 31.9182 14.7982C31.9182 15.4298 31.7004 15.8408 31.2108 16.1318Z" fill="#F22387"/>
</svg>
