<svg width="24" height="30" viewBox="0 0 24 30" fill="none" xmlns="http://www.w3.org/2000/svg">
<path d="M13.5958 12.7353C13.383 12.553 13.1399 12.4314 12.8663 12.3402C12.5927 12.2794 12.2888 12.249 11.9241 12.249H10.5259C10.2827 12.249 10.1307 12.3098 10.0092 12.401C9.91797 12.4922 9.85718 12.6746 9.85718 12.9177V16.8387C9.85718 17.0211 9.85718 17.1426 9.91797 17.2642C9.94836 17.3858 10.0092 17.4466 10.1003 17.5074C10.1915 17.5682 10.3435 17.5986 10.5563 17.5986H11.9544C12.1976 17.5986 12.4104 17.5682 12.6231 17.5378C12.8055 17.5074 12.9879 17.4466 13.1703 17.3858C13.3526 17.2946 13.5046 17.2034 13.6262 17.0819C13.8086 16.8995 13.9605 16.7171 14.0821 16.5043C14.2037 16.2916 14.2949 16.0484 14.3557 15.7749C14.4165 15.5013 14.4469 15.2277 14.4469 14.8934C14.4469 13.9512 14.1733 13.2217 13.5958 12.7353ZM12.8055 16.5043C12.7143 16.5651 12.6231 16.6259 12.532 16.6563C12.4104 16.6867 12.3192 16.7171 12.228 16.7171C12.1368 16.7171 11.9848 16.7171 11.8025 16.7171H10.9818V13.0697H11.7113C12.0456 13.0697 12.3192 13.1001 12.5624 13.1913C12.8055 13.2521 12.9879 13.4344 13.1399 13.708C13.2918 13.9815 13.383 14.3767 13.383 14.8934C13.3526 15.6837 13.1703 16.2004 12.8055 16.5043Z" fill="#242424"/>
<path d="M23.2613 5.98784L23.2309 5.95745V5.92705L17.4559 0.151976L17.4255 0.121581C17.4255 0.121581 17.3951 0.121581 17.3951 0.0911854C17.3951 0.0911854 17.3647 0.0911854 17.3647 0.0607903C17.2735 0 17.1823 0 17.0607 0H2.7446C2.19749 0 1.68077 0.212766 1.31603 0.577508L1.28564 0.607903C0.920895 0.972644 0.677734 1.51976 0.677734 2.06687V27.9331C0.677734 28.5106 0.920895 29.0274 1.28564 29.3921C1.65038 29.7568 2.19749 30 2.7446 30H21.2552C21.8328 30 22.3495 29.7568 22.7142 29.3921C23.079 29.0274 23.3221 28.4802 23.3221 27.9331V6.29179C23.3221 6.17021 23.2917 6.07903 23.2613 5.98784ZM17.6382 2.18845L21.0729 5.6231H18.5501C18.3069 5.6231 18.0638 5.53192 17.9118 5.34954C17.7598 5.19757 17.6382 4.95441 17.6382 4.71125V2.18845ZM22.0151 27.9331C22.0151 28.1459 21.9239 28.3283 21.772 28.4802C21.62 28.6322 21.4376 28.7234 21.2248 28.7234H2.7446C2.53184 28.7234 2.34947 28.6322 2.19749 28.5106C2.04552 28.3587 1.98473 28.1763 1.98473 27.9635V2.03647C1.98473 1.82371 2.07591 1.64134 2.22789 1.48936L2.25828 1.45897C2.41026 1.33739 2.59263 1.2462 2.775 1.2462H16.392V4.68085C16.392 5.28875 16.6352 5.83587 17.0607 6.2614C17.4559 6.65654 18.0334 6.8997 18.6413 6.8997H22.0151V27.9331Z" fill="#242424"/>
<path d="M8.45894 12.6749C8.30696 12.5229 8.12459 12.4318 7.88143 12.371C7.66866 12.3102 7.33432 12.2798 6.93918 12.2798H5.54101C5.29785 12.2798 5.11548 12.3406 5.02429 12.4318C4.90271 12.5229 4.87231 12.7053 4.87231 12.9485V17.0822C4.87231 17.295 4.9331 17.447 5.02429 17.5685C5.11548 17.6901 5.26745 17.7205 5.41943 17.7205C5.5714 17.7205 5.69298 17.6597 5.81456 17.5382C5.90575 17.4166 5.96654 17.2646 5.96654 17.0518V15.5321H6.96958C7.63827 15.5321 8.12459 15.3801 8.45894 15.1065C8.79328 14.833 8.97565 14.4074 8.97565 13.8603C8.97565 13.6172 8.94526 13.374 8.85407 13.1612C8.73249 12.9789 8.61091 12.7965 8.45894 12.6749ZM7.72945 14.3771C7.63827 14.4986 7.51669 14.5898 7.33432 14.6506C7.15195 14.7114 6.93918 14.7418 6.69602 14.7418H5.96654V13.1005H6.69602C7.18234 13.1005 7.48629 13.1916 7.66866 13.3436C7.82064 13.4956 7.88143 13.678 7.88143 13.9211C7.85103 14.1035 7.82064 14.2555 7.72945 14.3771Z" fill="#242424"/>
<path d="M16.0576 12.2188C15.8752 12.2491 15.7537 12.2795 15.6625 12.3403C15.5713 12.3707 15.4801 12.4619 15.4497 12.5531C15.3889 12.6443 15.3889 12.7659 15.3889 12.9482V17.0516C15.3889 17.2643 15.4497 17.4467 15.5409 17.5379C15.6321 17.6595 15.7841 17.6899 15.936 17.6899C16.088 17.6899 16.2096 17.6291 16.3312 17.5379C16.4224 17.4163 16.4831 17.2643 16.4831 17.0516V15.2887H18.2765C18.4284 15.2887 18.55 15.2583 18.6412 15.1671C18.7324 15.1063 18.7628 14.9847 18.7628 14.8631C18.7628 14.7415 18.7324 14.6504 18.6412 14.5592C18.55 14.4984 18.4284 14.4376 18.2765 14.4376H16.4831V13.0698H18.6108C18.7932 13.0698 18.9148 13.0394 19.0059 12.9482C19.0971 12.857 19.1275 12.7659 19.1275 12.6443C19.1275 12.5227 19.0971 12.4315 19.0059 12.3403C18.9148 12.2491 18.7932 12.2188 18.6108 12.2188H16.0576Z" fill="#242424"/>
</svg>
