<svg width="21" height="21" viewBox="0 0 21 21" fill="none" xmlns="http://www.w3.org/2000/svg">
<path d="M7.38019 14.1243L12.1548 18.8998C13.0216 16.0523 11.8016 13.2699 11.7884 13.2407C11.7322 13.1151 11.7529 12.9686 11.8418 12.864L16.6292 7.23586C16.6971 7.15582 16.7974 7.11064 16.9009 7.11064C16.919 7.11064 16.9375 7.11207 16.9557 7.11527C16.9685 7.1174 19.018 7.35953 19.9502 6.85193L14.1488 1.0498C13.9339 1.46101 13.7201 3.13302 13.872 4.05362C13.8926 4.17669 13.8467 4.30155 13.7518 4.3823L8.13742 9.15957C8.02752 9.25277 7.87138 9.26949 7.7444 9.2051C7.71701 9.19087 5.12023 7.89073 2.10019 8.84334L7.38019 14.1243Z" stroke="#360F76" stroke-width="2" stroke-linejoin="round"/>
<path d="M6.96129 14.0391L1.78906 19.2113" stroke="#360F76" stroke-width="2" stroke-linecap="round" stroke-linejoin="round"/>
</svg>
