<svg width="89" height="43" viewBox="0 0 89 43" fill="none" xmlns="http://www.w3.org/2000/svg">
<g clip-path="url(#clip0)">
<path d="M53.1077 25.5884C51.833 27.0529 50.26 28.2191 48.3887 29.087C46.5174 29.9277 44.3613 30.3481 41.9204 30.3481C39.6965 30.3481 37.6353 29.982 35.7369 29.2497C33.8655 28.5175 32.2383 27.4869 30.8551 26.158C29.472 24.8019 28.3872 23.1882 27.6007 21.3169C26.8141 19.4456 26.4209 17.3844 26.4209 15.1334C26.4209 12.8281 26.8141 10.7398 27.6007 8.86849C28.4143 6.99716 29.5262 5.41059 30.9365 4.10879C32.3468 2.77988 34.0011 1.76285 35.8996 1.05771C37.7981 0.352569 39.8457 0 42.0424 0C44.0765 0 46.0699 0.36613 48.0226 1.09839C50.0024 1.80353 51.6025 2.84768 52.823 4.23084L48.1039 8.94985C47.453 8.05486 46.5987 7.3904 45.541 6.95647C44.4833 6.52254 43.3985 6.30557 42.2865 6.30557C41.0661 6.30557 39.9406 6.5361 38.91 6.99716C37.9065 7.43109 37.0387 8.0413 36.3064 8.8278C35.5742 9.61431 35.0046 10.55 34.5978 11.6348C34.191 12.6925 33.9876 13.8587 33.9876 15.1334C33.9876 16.4352 34.191 17.6285 34.5978 18.7133C35.0046 19.7981 35.5606 20.7338 36.2657 21.5203C36.998 22.2797 37.8659 22.8764 38.8693 23.3103C39.8728 23.7442 40.9712 23.9612 42.1645 23.9612C43.5477 23.9612 44.7545 23.69 45.7851 23.1476C46.8157 22.6051 47.6429 21.9 48.2667 21.0321L53.1077 25.5884Z" fill="#242424"/>
<path d="M82.2064 29.5752L82.3691 9.19394H82.2471L74.7617 29.5752H69.88L62.5981 9.19394H62.476L62.6388 29.5752H56.0891V0.772949H65.9746L72.5243 19.2422H72.687L78.9519 0.772949H89.0001V29.5752H82.2064Z" fill="#242424"/>
<path d="M0.850987 41.8477H0V35.645H3.62328V36.3985H0.850987V41.8477Z" fill="#242424"/>
<path d="M4.60083 35.645H6.48704C6.80872 35.645 7.10408 35.6801 7.37312 35.7502C7.64216 35.8144 7.87318 35.9166 8.06619 36.0568C8.2592 36.197 8.40834 36.3751 8.51362 36.5912C8.61889 36.8073 8.67153 37.0643 8.67153 37.3622C8.67153 37.66 8.61597 37.9199 8.50484 38.1419C8.39372 38.358 8.23873 38.539 8.03987 38.685C7.84686 38.8252 7.61291 38.9303 7.33803 39.0004C7.06898 39.0705 6.77655 39.1056 6.46072 39.1056H5.45182V41.8477H4.60083V35.645ZM5.45182 38.4047H6.40808C6.84673 38.4047 7.18888 38.32 7.43453 38.1506C7.68602 37.9813 7.81177 37.7213 7.81177 37.3709C7.81177 37.0088 7.68602 36.7489 7.43453 36.5912C7.18303 36.4335 6.84381 36.3547 6.41685 36.3547H5.45182V38.4047Z" fill="#242424"/>
<path d="M10.1516 35.645L11.9851 39.4647L13.7485 35.645H14.696L12.3887 40.4985C12.2834 40.7146 12.1723 40.9132 12.0553 41.0943C11.9384 41.2695 11.8068 41.4243 11.6605 41.5586C11.5143 41.6871 11.3476 41.7864 11.1605 41.8565C10.9792 41.9324 10.7686 41.9703 10.5288 41.9703C10.2598 41.9703 10.0492 41.9382 9.89717 41.874C9.75095 41.8156 9.63105 41.7542 9.53748 41.69L9.9849 41.0242C10.0492 41.0709 10.134 41.1176 10.2393 41.1643C10.3446 41.2111 10.4732 41.2344 10.6253 41.2344C10.8125 41.2344 10.9762 41.1673 11.1166 41.0329C11.257 40.8928 11.3944 40.6942 11.5289 40.4372L9.2041 35.645H10.1516Z" fill="#242424"/>
<path d="M20.1917 35.645V41.8477H19.3407V36.3985H16.3666V41.8477H15.5156V35.645H20.1917Z" fill="#242424"/>
<path d="M26.4201 35.645V41.8477H25.5691V36.3985H22.5951V41.8477H21.7441V35.645H26.4201Z" fill="#242424"/>
<path d="M28.157 41.8477H27.2271L29.8941 35.645H30.7188L33.3682 41.8477H32.412L31.7803 40.3233H28.7799L28.157 41.8477ZM29.0607 39.5874H31.4996L30.2889 36.5912L29.0607 39.5874Z" fill="#242424"/>
<path d="M36.3689 41.8477V35.645H37.2199V38.1857C37.3603 38.1857 37.4948 38.1915 37.6235 38.2032C37.758 38.209 37.8896 38.2178 38.0183 38.2295L40.2642 35.645H41.1941L38.8868 38.431C39.5711 38.6646 40.1062 39.0618 40.4923 39.6224C40.8783 40.1831 41.1473 40.9249 41.2994 41.8477H40.3607C40.2729 41.3337 40.1472 40.8898 39.9834 40.516C39.8255 40.1423 39.6208 39.8385 39.3693 39.6049C39.1178 39.3655 38.8137 39.1932 38.4569 39.088C38.106 38.9771 37.6936 38.9274 37.2199 38.9391V41.8477H36.3689Z" fill="#242424"/>
<path d="M48.7061 38.7376C48.7061 39.2165 48.6242 39.6575 48.4604 40.0605C48.2967 40.4576 48.0686 40.8022 47.7761 41.0943C47.4837 41.3804 47.1357 41.6053 46.7321 41.7688C46.3344 41.9265 45.9016 42.0054 45.4337 42.0054C44.9658 42.0054 44.5301 41.9265 44.1265 41.7688C43.7288 41.6053 43.3837 41.3804 43.0913 41.0943C42.7989 40.8022 42.5708 40.4576 42.407 40.0605C42.2432 39.6575 42.1614 39.2165 42.1614 38.7376C42.1614 38.2587 42.2432 37.8206 42.407 37.4235C42.5708 37.0263 42.7989 36.6846 43.0913 36.3985C43.3837 36.1123 43.7288 35.8903 44.1265 35.7326C44.5301 35.5691 44.9658 35.4873 45.4337 35.4873C45.9016 35.4873 46.3344 35.5691 46.7321 35.7326C47.1357 35.8903 47.4837 36.1123 47.7761 36.3985C48.0686 36.6846 48.2967 37.0263 48.4604 37.4235C48.6242 37.8206 48.7061 38.2587 48.7061 38.7376ZM47.8024 38.7376C47.8024 38.3988 47.7469 38.0805 47.6358 37.7827C47.5246 37.479 47.3667 37.2132 47.162 36.9854C46.9573 36.7577 46.7087 36.5766 46.4163 36.4423C46.1239 36.3079 45.7963 36.2408 45.4337 36.2408C45.0711 36.2408 44.7436 36.3079 44.4511 36.4423C44.1587 36.5766 43.9101 36.7577 43.7054 36.9854C43.5007 37.2132 43.3428 37.479 43.2317 37.7827C43.1206 38.0805 43.065 38.3988 43.065 38.7376C43.065 39.0822 43.1206 39.4063 43.2317 39.7101C43.3428 40.0138 43.5007 40.2795 43.7054 40.5073C43.9101 40.7351 44.1587 40.9161 44.4511 41.0505C44.7436 41.179 45.0711 41.2432 45.4337 41.2432C45.7963 41.2432 46.1239 41.179 46.4163 41.0505C46.7087 40.9161 46.9573 40.7351 47.162 40.5073C47.3667 40.2795 47.5246 40.0138 47.6358 39.7101C47.7469 39.4063 47.8024 39.0822 47.8024 38.7376Z" fill="#242424"/>
<path d="M53.1244 40.481H53.1419L55.0369 35.645H56.309V41.8477H55.4668L55.4755 36.7139H55.4492L53.37 41.8477H52.8524L50.782 36.7139H50.7556L50.7644 41.8477H49.9397V35.645H51.2031L53.1244 40.481Z" fill="#242424"/>
<path d="M62.549 35.645V41.8477H61.6981V36.3985H58.724V41.8477H57.873V35.645H62.549Z" fill="#242424"/>
<path d="M64.286 41.8477H63.356L66.023 35.645H66.8477L69.4972 41.8477H68.5409L67.9092 40.3233H64.9089L64.286 41.8477ZM65.1896 39.5874H67.6285L66.4178 36.5912L65.1896 39.5874Z" fill="#242424"/>
<path d="M70.3044 35.645H71.1553V38.247H74.2962V35.645H75.1471V41.8477H74.2962V39.0004H71.1553V41.8477H70.3044V35.645Z" fill="#242424"/>
<path d="M77.5814 40.6299L80.9328 35.645H81.9504V41.8477H81.0994V36.8365H81.0819L77.7306 41.8477H76.7129V35.645H77.5639V40.6299H77.5814Z" fill="#242424"/>
<path d="M85.0596 33.875C85.1415 34.0795 85.276 34.2488 85.4632 34.3832C85.6562 34.5175 85.8784 34.5847 86.1299 34.5847C86.3931 34.5847 86.6154 34.5175 86.7967 34.3832C86.9838 34.2488 87.1184 34.0795 87.2003 33.875L87.7266 34.1379C87.6798 34.2722 87.6067 34.4007 87.5073 34.5233C87.4137 34.646 87.2997 34.754 87.1652 34.8475C87.0306 34.9351 86.8756 35.0052 86.7002 35.0578C86.5247 35.1103 86.3346 35.1366 86.1299 35.1366C85.9252 35.1366 85.7352 35.1103 85.5597 35.0578C85.3901 35.0052 85.2351 34.9351 85.0947 34.8475C84.9602 34.754 84.8461 34.646 84.7526 34.5233C84.659 34.4007 84.5859 34.2722 84.5332 34.1379L85.0596 33.875ZM87.7091 35.6447H88.7531V41.8474H87.9021V36.8362H87.8846L84.5508 41.8474H83.5156V35.6447H84.3666C84.3666 36.4799 84.3636 37.3093 84.3578 38.1328C84.3578 38.9505 84.3578 39.7769 84.3578 40.6121H84.3841L87.7091 35.6447Z" fill="#242424"/>
<path fill-rule="evenodd" clip-rule="evenodd" d="M0 1.52295V30.3251H6.91579V17.836C8.57016 17.7818 10.0211 17.9988 11.2687 18.4869C12.5162 18.948 13.5875 19.6938 14.4825 20.7244C15.3775 21.7279 16.1233 23.0297 16.7199 24.6298C17.3437 26.2299 17.859 28.1284 18.2658 30.3251H25.8325C25.3986 28.0199 24.8697 25.9723 24.246 24.1823C23.6222 22.3652 22.8899 20.7786 22.0492 19.4226C21.2084 18.0666 20.2728 16.9275 19.2422 16.0054C18.2718 15.1116 17.2173 14.3742 16.0787 13.793C15.1759 13.4472 13.6713 12.8924 12.7318 12.661C11.4759 12.3516 9.57045 12.1077 9.11862 12.0521L9.11257 12.0593C8.76 12.0322 8.39387 12.0186 8.01418 12.0186C7.66161 11.9915 7.29548 11.978 6.91579 11.978V1.52295H0ZM10.4049 10.5168L17.1603 12.0532L25.5071 1.52295H17.9404L10.4049 10.5168Z" fill="#242424"/>
</g>
<defs>
<clipPath id="clip0">
<rect width="89" height="43" fill="white"/>
</clipPath>
</defs>
</svg>
