<svg fill="none" xmlns="http://www.w3.org/2000/svg" viewBox="0 0 50 31"><path d="M49.96 29.34c0 .9-.76 1.66-1.67 1.66H1.67C.76 31 0 30.25 0 29.34V1.66C0 .76.76 0 1.67 0h46.66C49.24 0 50 .75 50 1.66v27.68h-.04z" fill="#F9F9F9"/><path d="M30.92 24.4h.47l.44-.04.48-.08.44-.04.44-.12.44-.12.4-.16.4-.16.4-.15.39-.2.36-.24.36-.2.35-.27.36-.24.32-.28.32-.31.28-.32.28-.32.28-.35.24-.32.24-.4.23-.35.2-.4.16-.39.16-.4.16-.4.12-.43.08-.43.08-.44.08-.43.04-.48V15.03l-.04-.44-.08-.47-.08-.44-.08-.4-.12-.43-.16-.43-.16-.4-.16-.4-.2-.35-.23-.4-.24-.35-.24-.36-.28-.31-.28-.32-.28-.32-.32-.31-.32-.28-.36-.24-.35-.27-.36-.24-.36-.2-.4-.2-.4-.16-.4-.15-.4-.16-.43-.12-.44-.12-.44-.08-.48-.04-.44-.04H30.48l-.48.04-.44.04-.44.08-.43.12-.44.12-.4.16-.4.15-.4.16-.4.2-.36.2-.4.24-.31.27-.36.24-.32.28-.32.31-.28.32-.28.32-.27.31-.24.36-.24.35-.24.4-.2.35-.16.4-.16.4-.16.43-.12.44-.08.4-.08.43-.04.47-.04.44-.04.47.04.43.04.48.04.43.08.44.08.43.12.44.16.4.16.39.16.4.2.4.24.35.24.4.23.3.28.36.28.32.28.32.32.31.32.28.36.24.32.27.4.2.35.24.4.2.4.15.4.16.4.16.44.12.43.12.44.04.44.08.48.04h.44z" fill="#EC1C2E"/><path d="M19.04 24.4h.44l.48-.04.44-.08.44-.04.43-.12.44-.12.4-.16.44-.16.4-.15.36-.2.4-.24.35-.2.36-.27.32-.24.32-.28.32-.31.32-.32.28-.32.24-.35.27-.32.2-.4.24-.35.2-.4.16-.39.16-.4.16-.4.12-.43.08-.43.08-.44.08-.43.04-.48V15.03l-.04-.44-.08-.47-.08-.44-.08-.4-.12-.43-.16-.43-.16-.4-.16-.4-.2-.35-.24-.4-.2-.35-.27-.36-.24-.31-.28-.32-.32-.32-.32-.31-.32-.28-.32-.24-.36-.27-.35-.24-.4-.2-.36-.2-.4-.16-.44-.15-.4-.16-.44-.12-.43-.12-.44-.08-.44-.04-.48-.04H18.57l-.44.04-.48.04-.44.08-.44.12-.4.12-.43.16-.4.15-.4.16-.4.2-.36.2-.36.24-.35.27-.36.24-.32.28-.32.31-.28.32-.28.32-.28.31-.24.36-.24.35-.2.4-.2.35-.2.4-.15.4-.16.43-.12.44-.08.4-.08.43-.04.47-.04.44-.04.47.04.43.04.48.04.43.08.44.08.43.12.44.16.4.16.39.2.4.2.4.2.35.23.4.24.3.28.36.28.32.28.32.32.31.32.28.36.24.35.27.36.2.36.24.4.2.4.15.4.16.43.16.4.12.44.12.44.04.48.08.44.04h.47z" fill="#0084C4"/><path d="M23.86 10h4.59V9.5H24.3l-.44.51zM23.15 11.03h5.3v-.47h-4.98l-.32.47zM22.63 12.1h5.82v-.47h-5.58l-.24.47zM22.27 13.17h6.18v-.52h-6.02l-.16.52zM22.07 14.23h6.38v-.5h-6.3l-.08.5zM22 16.25h6.45v-.47h-6.5l.04.47zM22.15 17.4h6.3v-.52h-6.38l.08.52zM22.47 18.27h5.98v-.48H22.3l.16.48zM22.9 19.38h5.55v-.48h-5.78l.24.48zM23.55 20.48h4.9v-.47h-5.22l.32.47zM24.34 21.55h4.03v-.47H23.9l.44.47zM38.45 20.96l.04-.08.04-.08.04-.08.08-.04.04-.04.08-.04h.19l.08.04.08.04.04.04.08.08.04.08v.08h-.08v-.08l-.04-.04-.04-.04-.04-.08H39l-.08-.04h-.12l-.07.04h-.04l-.08.08-.04.04-.04.04v.08h-.08z" fill="#EC1C2E"/><path d="M38.73 20.96v-.12h.23l.04.04h.04v.08h-.08v-.04l-.04-.04h-.12v.08h-.07zM38.45 21.04v-.08h.08v.08h-.08zM38.73 21.04v-.08h.07V21h.16v-.04h.08v.08h-.31zM39.2 21.04v-.08h.08l.04.08h-.12zM38.45 21.04v.07l.04.08.04.08.04.08.08.04.04.04.08.04h.19l.08-.04.08-.04.04-.04.08-.08.04-.08v-.08l.04-.07h-.12V21.19l-.04.04-.04.08-.04.04-.08.04h-.27l-.04-.04-.08-.04-.04-.08-.04-.04V21.04h-.08z" fill="#EC1C2E"/><path d="M38.73 21.04v.15h.07v-.11h.08l.08.11h.08l-.12-.11.04-.04h.08-.31z" fill="#EC1C2E"/><path d="M29 14.75h-.08l-.04-.04h-.23l-.04-.04h-.84l-.08.04h-.08l-.08.04-.04.04-.04.04-.04.04-.04.04-.04.04v.04l-.04.04v.07l.04.04v.08l.04.04.04.04.08.08.12.08.12.04.12.04.12.04.16.08.12.04.16.04.12.08.12.08.07.11.12.12.04.16.04.2.04.24-.04.23v.2l-.08.2-.04.16-.11.12-.08.11-.12.12-.12.08-.12.08-.12.08-.16.04-.16.04-.12.04-.16.04H26.14l-.08-.04h-.16l-.08-.04h-.08l-.08-.04h-.08l-.08-.04-.04-.04.16-.9h.04l.04.03h.08l.08.04h.08l.08.04h.19l.08.04h.24l.12.04h.52l.12-.04.08-.04.08-.04.04-.04.04-.08.04-.04.04-.08v-.04l.04-.08-.04-.08v-.07l-.04-.04-.04-.04-.08-.04-.04-.04-.08-.04-.04-.04-.08-.04h-.08l-.08-.04-.08-.04-.08-.04-.08-.04-.08-.04-.08-.04-.08-.04-.08-.04-.08-.04-.08-.08-.08-.04-.04-.07-.07-.08-.04-.08-.04-.08-.04-.12-.04-.08V14.99l.04-.08v-.16l.04-.08v-.08l.04-.08.04-.04.04-.08v-.04l.04-.08.03-.04.04-.07.08-.04.04-.04.04-.04.08-.04.04-.04.08-.04.08-.04.08-.04h.08l.08-.04.08-.04h.2l.08-.04h.24l.12-.04h.68l.12.04H28.84l.04.04H29.12l.04.04h.04l-.2.95z" fill="#fff"/><path d="M29 14.75h-.08l-.04-.04h-.23l-.04-.04h-.84l-.08.04h-.08l-.08.04-.04.04-.04.04-.04.04-.04.04-.04.04v.04l-.04.04v.07l.04.04v.08l.04.04.04.04.08.08.12.08.12.04.12.04.12.04.16.08.12.04.16.04.12.08.12.08.07.11.12.12.04.16.04.2.04.24-.04.23v.2l-.08.2-.04.16-.11.12-.08.11-.12.12-.12.08-.12.08-.12.08-.16.04-.16.04-.12.04-.16.04H26.14l-.08-.04h-.16l-.08-.04h-.08l-.08-.04h-.08l-.08-.04-.04-.04.16-.9h.04l.04.03h.08l.08.04h.08l.08.04h.19l.08.04h.24l.12.04h.52l.12-.04.08-.04.08-.04.04-.04.04-.08.04-.04.04-.08v-.04l.04-.08-.04-.08v-.07l-.04-.04-.04-.04-.08-.04-.04-.04-.08-.04-.04-.04-.08-.04h-.08l-.08-.04-.08-.04-.08-.04-.08-.04-.08-.04-.08-.04-.08-.04-.08-.04-.08-.04-.08-.08-.08-.04-.04-.07-.07-.08-.04-.08-.04-.08-.04-.12-.04-.08V14.99l.04-.08v-.16l.04-.08v-.08l.04-.08.04-.04.04-.08v-.04l.04-.08.03-.04.04-.07.08-.04.04-.04.04-.04.08-.04.04-.04.08-.04.08-.04.08-.04h.08l.08-.04.08-.04h.2l.08-.04h.24l.12-.04h.68l.12.04H28.84l.04.04H29.12l.04.04h.04l-.2.95z" stroke="#fff" stroke-width=".21"/><path d="M29.96 12.77h1.2l-.2 1.03h.71l-.16.95-.71-.04-.4 2.33v.2l.04.04h.04v.04h.04l.04.04h.2l.04.04h.12l.12-.04h.12l.04-.04h.07l-.11.79h-.04v.04h-.08l-.04.04h-.08l-.04.04h-.12l-.04.04H29.8l-.12-.04-.12-.04-.08-.04-.12-.04-.04-.04-.08-.04-.04-.08-.04-.08v-.51l.8-4.59z" fill="#fff"/><path d="M29.96 12.77h1.2l-.2 1.03h.71l-.16.95-.71-.04-.4 2.33v.2l.04.04h.04v.04h.04l.04.04h.2l.04.04h.12l.12-.04h.12l.04-.04h.07l-.11.79h-.04v.04h-.08l-.04.04h-.08l-.04.04h-.12l-.04.04H29.8l-.12-.04-.12-.04-.08-.04-.12-.04-.04-.04-.08-.04-.04-.08-.04-.08v-.51l.8-4.59z" stroke="#fff" stroke-width=".21"/><path d="M22.75 16.33v.32l.04.08.04.07.04.04.04.08.08.08.04.08.08.04.08.08.08.04.08.04.08.04h.2l.12.04h.75l.12-.04.12-.04.12-.04.12-.04.12-.04.12-.08.12-.08-.16 1.07-.08.04h-.08l-.04.04-.08.04h-.08l-.04.04h-.16l-.08.04H23.4l-.12-.04h-.12l-.08-.04h-.12l-.12-.04-.08-.04-.12-.04-.08-.04-.12-.04-.08-.04-.08-.08-.12-.08-.08-.04-.08-.08-.08-.07-.04-.12-.08-.08-.04-.12-.08-.08-.04-.12-.04-.12-.04-.16v-.11l-.04-.16v-.63l.04-.08v-.2l.04-.08v-.08l.04-.08.04-.12v-.08l.04-.08.04-.07.04-.12.04-.08.08-.08.04-.12.04-.08.08-.08.08-.08.08-.08.08-.08.08-.07.12-.08.08-.04.12-.08.12-.04.12-.08.12-.04.16-.04h.16l.16-.04H24.22l.08.04h.16l.08.04.12.04.08.04h.08l.08.04.08.08.08.04.04.04.08.08.08.07.04.04.08.12.04.08.04.08.04.12.04.08.04.12v.12l.04.15V15.58l-.04.16v.16l-.04.2-.04.23h-3.07l.16-.79h1.83l.04-.12v-.12l-.04-.08v-.08l-.04-.07v-.08l-.04-.08-.04-.04-.08-.08-.04-.04-.04-.04h-.08l-.08-.04h-.08l-.04-.04H23.71l-.08.04h-.08l-.08.04h-.08l-.04.04-.08.04-.04.08-.08.04-.04.08-.04.04-.04.07-.04.08-.04.08v.08l-.04.12-.16.87z" fill="#fff"/><path d="M22.75 16.33v.32l.04.08.04.07.04.04.04.08.08.08.04.08.08.04.08.08.08.04.08.04.08.04h.2l.12.04h.75l.12-.04.12-.04.12-.04.12-.04.12-.04.12-.08.12-.08-.16 1.07-.08.04h-.08l-.04.04-.08.04h-.08l-.04.04h-.16l-.08.04H23.4l-.12-.04h-.12l-.08-.04h-.12l-.12-.04-.08-.04-.12-.04-.08-.04-.12-.04-.08-.04-.08-.08-.12-.08-.08-.04-.08-.08-.08-.07-.04-.12-.08-.08-.04-.12-.08-.08-.04-.12-.04-.12-.04-.16v-.11l-.04-.16v-.63l.04-.08v-.2l.04-.08v-.08l.04-.08.04-.12v-.08l.04-.08.04-.07.04-.12.04-.08.08-.08.04-.12.04-.08.08-.08.08-.08.08-.08.08-.08.08-.07.12-.08.08-.04.12-.08.12-.04.12-.08.12-.04.16-.04h.16l.16-.04H24.22l.08.04h.16l.08.04.12.04.08.04h.08l.08.04.08.08.08.04.04.04.08.08.08.07.04.04.08.12.04.08.04.08.04.12.04.08.04.12v.12l.04.15V15.58l-.04.16v.16l-.04.2-.04.23h-3.07l.16-.79h1.83l.04-.12v-.12l-.04-.08v-.08l-.04-.07v-.08l-.04-.08-.04-.04-.08-.08-.04-.04-.04-.04h-.08l-.08-.04h-.08l-.04-.04H23.71l-.08.04h-.08l-.08.04h-.08l-.04.04-.08.04-.04.08-.08.04-.04.08-.04.04-.04.07-.04.08-.04.08v.08l-.04.12-.16.87z" stroke="#fff" stroke-width=".21"/><path d="M21.12 17.36l-.16.9h-1.08v-.07l.04-.08v-.16l.04-.04v-.12l-.04.04-.08.08-.08.08-.08.04-.08.08-.12.04-.12.04-.12.04-.12.04-.12.04-.12.04h-.59l-.16-.04-.12-.04-.12-.08-.12-.04-.08-.08-.08-.08-.08-.08-.08-.08-.04-.12-.04-.07-.04-.08v-.12l-.04-.08V16.92l.04-.15.04-.16.04-.12.08-.16.08-.12.08-.12.08-.12.12-.07.12-.08.12-.08.12-.08.16-.04.12-.04.16-.04.11-.04h.16l.08-.04h.28l.08-.04H20.24l.04-.08v-.27l-.04-.04v-.04l-.04-.04-.04-.04v-.04l-.04-.04h-.04l-.04-.04-.04-.04h-.08l-.08-.04h-.76l-.12.04h-.27l-.12.04h-.12l-.12.04h-.08l-.12.04-.08.04H18l-.04.04.28-1 .12-.03.08-.04.08-.04.12-.04h.11l.08-.04h.36l.12-.04h.8l.12.04h.12l.16.04.12.04.12.04.16.08.12.08.12.08.11.08.08.11.08.08.08.16.04.12.04.16v.16l-.04.15-.43 2.22z" fill="#fff"/><path d="M21.12 17.36l-.16.9h-1.08v-.07l.04-.08v-.16l.04-.04v-.12l-.04.04-.08.08-.08.08-.08.04-.08.08-.12.04-.12.04-.12.04-.12.04-.12.04-.12.04h-.59l-.16-.04-.12-.04-.12-.08-.12-.04-.08-.08-.08-.08-.08-.08-.08-.08-.04-.12-.04-.07-.04-.08v-.12l-.04-.08V16.92l.04-.15.04-.16.04-.12.08-.16.08-.12.08-.12.08-.12.12-.07.12-.08.12-.08.12-.08.16-.04.12-.04.16-.04.11-.04h.16l.08-.04h.28l.08-.04H20.24l.04-.08v-.27l-.04-.04v-.04l-.04-.04-.04-.04v-.04l-.04-.04h-.04l-.04-.04-.04-.04h-.08l-.08-.04h-.76l-.12.04h-.27l-.12.04h-.12l-.12.04h-.08l-.12.04-.08.04H18l-.04.04.28-1 .12-.03.08-.04.08-.04.12-.04h.11l.08-.04h.36l.12-.04h.8l.12.04h.12l.16.04.12.04.12.04.16.08.12.08.12.08.11.08.08.11.08.08.08.16.04.12.04.16v.16l-.04.15-.43 2.22z" stroke="#fff" stroke-width=".21"/><path d="M20.12 16.25l-.04-.04h-.04l-.04-.04h-.28l-.08.04h-.2l-.08.04h-.12l-.04.04h-.04l-.04.04h-.04l-.08.04-.04.04-.04.04-.08.04-.04.04-.04.04-.04.04-.07.08v.04l-.04.08v.31l.04.08.04.08.07.04.08.04H19.2l.12-.04h.12l.08-.04.08-.04.08-.04.04-.04.08-.04.04-.08.04-.04.04-.04v-.04l.04-.04v-.07l.04-.04v-.04l.04-.08v-.16l.04-.04v-.16l.04-.04z" fill="#0084C4"/><path d="M12.23 18.27h-1.15l.95-5.5h2l.2 3.28 1.39-3.28h2.07l-.96 5.5h-1.15l.71-4.11h-.04l-1.7 4.1h-1.32v-.15l-.04-.47-.04-.64-.04-.75-.04-.75-.04-.67v-.48l-.04-.2h-.04l-.72 4.12z" fill="#fff"/><path d="M12.23 18.27h-1.15l.95-5.5h2l.2 3.28 1.39-3.28h2.07l-.96 5.5h-1.15l.71-4.11h-.04l-1.7 4.1h-1.32v-.15l-.04-.47-.04-.64-.04-.75-.04-.75-.04-.67v-.48l-.04-.2h-.04l-.72 4.12z" stroke="#fff" stroke-width=".21"/><path d="M31.47 18.27h1.2l.4-2.37.04-.08v-.08l.04-.12.04-.08.04-.08.04-.08.04-.08.04-.08.08-.04.08-.08.08-.03.12-.04.11-.04.12-.04.16-.04h.28v.04-.04l.04-.04v-.08l.04-.12v-.08l.04-.12.04-.12.04-.12.04-.07.04-.08.04-.08.04-.08.04-.04.04-.08v-.04h-.12l-.04-.04h-.04l-.12.04h-.12l-.12.04h-.08l-.12.04-.08.04-.08.04-.08.08-.04.04-.07.08-.08.04-.04.07-.08.08-.04.08-.08.08-.04.08.12-.75h-1.2l-.8 4.47z" fill="#fff"/><path d="M31.47 18.27h1.2l.4-2.37.04-.08v-.08l.04-.12.04-.08.04-.08.04-.08.04-.08.04-.08.08-.04.08-.08.08-.03.12-.04.11-.04.12-.04.16-.04h.28v.04-.04l.04-.04v-.08l.04-.12v-.08l.04-.12.04-.12.04-.12.04-.07.04-.08.04-.08.04-.08.04-.04.04-.08v-.04h-.12l-.04-.04h-.04l-.12.04h-.12l-.12.04h-.08l-.12.04-.08.04-.08.04-.08.08-.04.04-.07.08-.08.04-.04.07-.08.08-.04.08-.08.08-.04.08.12-.75h-1.2l-.8 4.47z" stroke="#fff" stroke-width=".21"/><path d="M36.65 13.72l.16.04h.36l.12.04.12.04.12.04.12.04.08.04.12.04.08.04.08.08.08.04.12.07.04.04.08.08.08.08.08.08.04.08.08.12.04.08.04.08.04.12.04.08.03.11.04.12v.08l.04.12v.63l-.04.16v.12l-.04.16-.03.12-.04.11-.04.12-.04.12-.04.12-.04.08-.08.12-.04.08-.08.12-.08.08-.08.07-.08.08-.08.04-.08.08-.08.08-.12.04-.08.04-.12.08-.08.04-.12.04-.12.04h-.08l-.12.04h-.12l-.12.04h-.71l-.12-.04h-.12l-.08-.04h-.12l-.12-.04-.08-.04-.12-.04-.08-.08-.08-.04-.12-.04-.08-.08-.08-.08-.08-.04-.04-.08-.08-.07-.08-.08-.04-.08-.08-.12-.04-.08-.04-.12-.04-.08-.04-.12-.04-.12v-.11l-.04-.12v-.12l-.04-.12v-.28l.04-.15v-.12l.04-.16v-.12l.04-.12.04-.12.04-.12.04-.11.04-.08.04-.12.08-.08.04-.12.08-.08.08-.08.08-.08.08-.08.08-.08.08-.07.08-.04.08-.08.12-.04.08-.04.12-.08.08-.04.12-.04h.12l.12-.04.12-.04h.35l.12-.04z" fill="#fff"/><path d="M36.65 13.72l.16.04h.36l.12.04.12.04.12.04.12.04.08.04.12.04.08.04.08.08.08.04.12.07.04.04.08.08.08.08.08.08.04.08.08.12.04.08.04.08.04.12.04.08.03.11.04.12v.08l.04.12v.63l-.04.16v.12l-.04.16-.03.12-.04.11-.04.12-.04.12-.04.12-.04.08-.08.12-.04.08-.08.12-.08.08-.08.07-.08.08-.08.04-.08.08-.08.08-.12.04-.08.04-.12.08-.08.04-.12.04-.12.04h-.08l-.12.04h-.12l-.12.04h-.71l-.12-.04h-.12l-.08-.04h-.12l-.12-.04-.08-.04-.12-.04-.08-.08-.08-.04-.12-.04-.08-.08-.08-.08-.08-.04-.04-.08-.08-.07-.08-.08-.04-.08-.08-.12-.04-.08-.04-.12-.04-.08-.04-.12-.04-.12v-.11l-.04-.12v-.12l-.04-.12v-.28l.04-.15v-.12l.04-.16v-.12l.04-.12.04-.12.04-.12.04-.11.04-.08.04-.12.08-.08.04-.12.08-.08.08-.08.08-.08.08-.08.08-.08.08-.07.08-.04.08-.08.12-.04.08-.04.12-.08.08-.04.12-.04h.12l.12-.04.12-.04h.35l.12-.04z" stroke="#fff" stroke-width=".21"/><path d="M38.45 18.07h.31v.04h-.11v.28h-.08v-.28h-.12v-.04z" fill="#fff"/><path d="M38.45 18.07h.31v.04h-.11v.28h-.08v-.28h-.12v-.04z" stroke="#fff" stroke-width=".21"/><path d="M38.8 18.07h.12l.12.24.12-.24h.12v.32h-.08v-.24l-.12.24H39l-.12-.24v.24h-.08v-.32z" fill="#fff"/><path d="M38.8 18.07h.12l.12.24.12-.24h.12v.32h-.08v-.24l-.12.24H39l-.12-.24v.24h-.08v-.32z" stroke="#fff" stroke-width=".21"/><path d="M35.74 15.9l-.04.15V16.5l.04.08v.12l.04.08.04.11.08.04.04.08.04.04.08.04.08.04.08.04h.39l.08-.04h.08l.08-.08.08-.04.08-.04.08-.08.04-.07.08-.12.04-.08.04-.12.04-.12.04-.16.04-.16.04-.15V15.34l-.04-.12-.04-.08-.04-.07-.04-.08-.04-.08-.08-.04-.04-.04-.08-.04-.08-.04h-.44l-.08.04-.12.04-.07.08-.08.04-.08.08-.08.07-.04.12-.04.08-.08.08-.04.12-.04.08v.12l-.04.08v.12z" fill="#EC1C2E"/></svg>