<svg fill="none" xmlns="http://www.w3.org/2000/svg" viewBox="0 0 50 31"><path d="M49.96 29.34c0 .9-.76 1.66-1.67 1.66H1.67C.76 31 0 30.25 0 29.34V1.66C0 .76.76 0 1.67 0h46.66C49.24 0 50 .75 50 1.66v27.68h-.04z" fill="#F9F9F9"/><path fill-rule="evenodd" clip-rule="evenodd" d="M31 24.4h.43l.48-.04.44-.08.44-.08.44-.08.44-.12.4-.16.4-.16.4-.15.39-.2.4-.24.36-.2.35-.27.32-.24.32-.32.32-.27.32-.32.28-.32.24-.35.28-.32.24-.4.2-.35.2-.4.15-.39.2-.4.12-.4.12-.43.12-.43.08-.44.04-.43.04-.48V15.03l-.04-.44-.04-.47-.08-.44-.12-.4-.12-.43-.12-.43-.2-.4-.16-.4-.2-.35-.2-.4-.23-.35-.28-.36-.24-.31-.28-.32-.32-.32-.32-.31-.32-.28-.32-.24-.35-.27-.36-.2-.4-.24-.4-.2-.4-.16-.4-.15-.4-.16-.43-.12-.44-.08-.44-.08-.44-.08-.48-.04H30.52l-.44.04-.48.08-.44.08-.4.08-.43.12-.44.16-.4.15-.4.16-.36.2-.4.24-.35.2-.36.27-.32.24-.32.28-.32.31-.32.32-.28.32-.24.31-.27.36-.2.35-.24.4-.2.35-.16.4-.16.4-.16.43-.12.44-.08.4-.08.43-.08.47-.04.44V15.93l.04.48.08.43.08.44.08.43.12.44.16.4.16.39.16.4.2.4.24.35.2.4.27.3.24.36.28.32.32.32.32.27.32.32.32.24.36.27.35.2.4.24.36.2.4.15.4.16.44.16.44.12.4.08.43.08.48.08.44.04H31z" fill="#FBB231"/><path fill-rule="evenodd" clip-rule="evenodd" d="M19 24.4h.44l.48-.04.44-.08.44-.08.44-.08.43-.12.4-.16.4-.16.4-.15.4-.2.36-.24.35-.2.36-.27.36-.24.32-.32.32-.27.28-.32.28-.32.28-.35.23-.32.24-.4.2-.35.2-.4.2-.39.16-.4.12-.4.12-.43.12-.43.08-.44.04-.43.04-.48V15.03l-.04-.44-.04-.47-.08-.44-.12-.4-.12-.43-.12-.43-.16-.4-.2-.4-.2-.35-.2-.4-.24-.35-.23-.36-.28-.31-.28-.32-.28-.32-.32-.31-.32-.28-.36-.24-.36-.27-.35-.2-.36-.24-.4-.2-.4-.16-.4-.15-.4-.16-.43-.12-.44-.08-.44-.08-.44-.08-.48-.04H18.53l-.44.04-.48.08-.44.08-.44.08-.4.12-.43.16-.4.15-.4.16-.4.2-.36.24-.36.2-.35.27-.36.24-.32.28-.32.31-.28.32-.28.32-.28.31-.24.36-.24.35-.23.4-.2.35-.16.4-.16.4-.16.43-.12.44-.08.4-.08.43-.08.47v.44l-.04.47.04.43v.48l.08.43.08.44.08.43.12.44.16.4.16.39.16.4.2.4.23.35.24.4.24.3.28.36.28.32.28.32.32.27.32.32.36.24.35.27.36.2.36.24.4.2.4.15.4.16.43.16.4.12.44.08.44.08.48.08.44.04H19z" fill="#EC1C2E"/><path fill-rule="evenodd" clip-rule="evenodd" d="M23.94 10h4.75v-.47h-4.35l-.4.47zM23.23 11.07h5.46v-.47H23.5l-.28.47zM22.7 12.18h5.99v-.52H22.9l-.2.52zM22.31 13.25h6.38v-.52h-6.22l-.16.52zM22.55 18.43h6.18v-.48h-6.34l.16.48zM22.99 19.5h5.74v-.48h-5.98l.24.47zM23.63 20.56h5.1v-.47h-5.38l.28.47zM24.5 21.63h4.23v-.48H24.1l.4.48zM22.11 14.31h6.58v-.47h-6.5l-.08.47zM26.14 17.36h2.5v-.48h-2.42l-.08.48zM26.33 16.3h2.32v-.48H26.4l-.08.47zM21.95 15.82h.64v.47h-.6l-.04-.47z" fill="#FBB231"/><path fill-rule="evenodd" clip-rule="evenodd" d="M20.72 15.22h-.04l-.04-.04H20.4l-.04-.04H20l-.08.04h-.2l-.04.04h-.04l-.04.04-.04.04v.04h-.04v.2l.04.04.04.04.04.04.08.08.08.04h.08l.12.04.08.04.12.04.08.04.12.03.08.08.08.08.04.08.04.12.04.12v.51l-.04.12-.08.12-.04.08-.08.08-.08.08-.08.08-.08.04-.12.08-.08.04h-.12l-.08.03h-.12l-.12.04h-.72l-.08-.04h-.27l-.04-.04h-.12l-.04-.03h-.04l-.08-.04.16-.64h.08l.08.04h.12l.04.04H18.88l.08.04h.52l.08-.04.04-.04.04-.04.04-.04.04-.04V16.77l.04-.08-.04-.08-.04-.04-.08-.04-.12-.08-.08-.04-.12-.04-.12-.04-.12-.04-.12-.08-.12-.08-.07-.08-.08-.11-.04-.16-.04-.16v-.32l.04-.08.04-.12.04-.07.04-.12.03-.08.08-.08.08-.04.08-.08.08-.04.12-.04.12-.04h.12l.16-.04H20.6l.04.04h.2l.04.04-.16.67z" fill="#fff"/><path d="M20.72 15.22h-.04l-.04-.04H20.4l-.04-.04H20l-.08.04h-.2l-.04.04h-.04l-.04.04-.04.04v.04h-.04v.2l.04.04.04.04.04.04.08.08.08.04h.08l.12.04.08.04.12.04.08.04.12.03.08.08.08.08.04.08.04.12.04.12v.51l-.04.12-.08.12-.04.08-.08.08-.08.08-.08.08-.08.04-.12.08-.08.04h-.12l-.08.03h-.12l-.12.04h-.72l-.08-.04h-.27l-.04-.04h-.12l-.04-.03h-.04l-.08-.04.16-.64h.08l.08.04h.12l.04.04H18.88l.08.04h.52l.08-.04.04-.04.04-.04.04-.04.04-.04V16.77l.04-.08-.04-.08-.04-.04-.08-.04-.12-.08-.08-.04-.12-.04-.12-.04-.12-.04-.12-.08-.12-.08-.07-.08-.08-.11-.04-.16-.04-.16v-.32l.04-.08.04-.12.04-.07.04-.12.03-.08.08-.08.08-.04.08-.08.08-.04.12-.04.12-.04h.12l.16-.04H20.6l.04.04h.2l.04.04-.16.67z" stroke="#fff" stroke-width=".22" stroke-miterlimit="2.61"/><path fill-rule="evenodd" clip-rule="evenodd" d="M21.43 13.8h.84l-.12.71h.52l-.12.67h-.52l-.32 1.66v.08l.04.04.04.04v.04h.08l.04.04H22.31l.04-.04h.04l-.12.56-.04.04h-.04v.03h-.12l-.04.04h-.79l-.08-.04-.08-.03h-.04l-.08-.04-.04-.04-.04-.04v-.12l-.04-.04v-.16l.04-.04v-.08l.55-3.28z" fill="#fff"/><path d="M21.43 13.8h.84l-.12.71h.52l-.12.67h-.52l-.32 1.66v.08l.04.04.04.04v.04h.08l.04.04H22.31l.04-.04h.04l-.12.56-.04.04h-.04v.03h-.12l-.04.04h-.79l-.08-.04-.08-.03h-.04l-.08-.04-.04-.04-.04-.04v-.12l-.04-.04v-.16l.04-.04v-.08l.55-3.28z" stroke="#fff" stroke-width=".22" stroke-miterlimit="2.61"/><path d="M23.35 16.33l-.04.04v.12l.04.08v.04l.04.04.04.08.04.04.04.04.04.03.04.08.04.04h.08l.03.04.08.04h.2l.08.04h.4l.08-.04h.08l.08-.04h.08l.12-.04.08-.04.08-.04.08-.04-.12.72-.04.04h-.04l-.08.04h-.04l-.04.04h-.08l-.08.03h-1.03l-.16-.04-.12-.07-.16-.04-.12-.08-.16-.08-.12-.12-.08-.12-.08-.12-.08-.16-.04-.2-.04-.2-.04-.19.04-.28v-.07l.04-.12v-.12l.04-.12.04-.12.08-.16.04-.12.08-.11.12-.12.12-.12.12-.12.16-.08.16-.08.2-.04.23-.04h.48l.12.04h.12l.12.04.12.08.12.08.08.08.12.08.08.12.04.15.04.16.04.16v.24l-.04.2-.04.27v.16h-2.23l.16-.6h1.31v-.27l-.04-.04v-.04l-.04-.04-.04-.04-.04-.04-.04-.04-.04-.04h-.04l-.04-.04h-.12l-.04-.04-.04.04h-.12l-.04.04h-.08l-.04.04-.03.04-.04.04-.04.04-.04.04-.04.04v.04l-.04.08-.04.04v.12l-.12.63z" stroke="#fff" stroke-width=".22" stroke-miterlimit="2.61"/><path fill-rule="evenodd" clip-rule="evenodd" d="M30.56 14.7l-.04-.03h-.04l-.04-.04h-.08l-.04-.04h-.04l-.04-.04h-.12l-.08-.04h-.16l-.08-.04h-.24l-.08.04h-.16l-.08.04-.08.04-.08.04-.08.04-.12.08-.04.08-.08.08-.07.12-.08.11-.04.16-.08.16-.04.2-.04.12v.39l.04.12v.08l.04.08.04.08.08.08.04.08.08.08.07.03.12.04.08.04.12.04h.16l.04.04h.28l.08-.04h.08l.08-.04h.08l.08-.04.08-.04.04-.03.08-.08-.16.83v.04H30l-.04.04h-.04l-.04.04h-.04l-.04.03h-.08l-.08.04h-.91l-.12-.04-.16-.03-.12-.08-.16-.04-.12-.12-.12-.08-.12-.12-.08-.16-.08-.16-.08-.15-.08-.2v-.2l-.04-.2v-.23l.04-.24.04-.12v-.12l.04-.12.04-.12.04-.12.04-.07.04-.12.04-.08.04-.12.04-.08.04-.08.08-.08.04-.08.08-.08.04-.04.08-.07.08-.08.04-.04.08-.04.08-.04.08-.08.08-.04h.08l.07-.04.12-.04.08-.04h.12l.08-.04h.2l.12-.04h.24l.08.04h.28l.08.04h.08l.04.04h.08l.08.04h.04l.04.04h.08l.04.04-.12.83z" fill="#fff"/><path d="M30.56 14.7l-.04-.03h-.04l-.04-.04h-.08l-.04-.04h-.04l-.04-.04h-.12l-.08-.04h-.16l-.08-.04h-.24l-.08.04h-.16l-.08.04-.08.04-.08.04-.08.04-.12.08-.04.08-.08.08-.07.12-.08.11-.04.16-.08.16-.04.2-.04.12v.39l.04.12v.08l.04.08.04.08.08.08.04.08.08.08.07.03.12.04.08.04.12.04h.16l.04.04h.28l.08-.04h.08l.08-.04h.08l.08-.04.08-.04.04-.03.08-.08-.16.83v.04H30l-.04.04h-.04l-.04.04h-.04l-.04.03h-.08l-.08.04h-.91l-.12-.04-.16-.03-.12-.08-.16-.04-.12-.12-.12-.08-.12-.12-.08-.16-.08-.16-.08-.15-.08-.2v-.2l-.04-.2v-.23l.04-.24.04-.12v-.12l.04-.12.04-.12.04-.12.04-.07.04-.12.04-.08.04-.12.04-.08.04-.08.08-.08.04-.08.08-.08.04-.04.08-.07.08-.08.04-.04.08-.04.08-.04.08-.08.08-.04h.08l.07-.04.12-.04.08-.04h.12l.08-.04h.2l.12-.04h.24l.08.04h.28l.08.04h.08l.04.04h.08l.08.04h.04l.04.04h.08l.04.04-.12.83z" stroke="#fff" stroke-width=".22" stroke-miterlimit="2.61"/><path fill-rule="evenodd" clip-rule="evenodd" d="M38 17.71h-.87l.08-.31v-.04l-.04.08-.04.04-.08.04-.04.04-.08.04-.04.04-.04.03-.08.04h-.04l-.08.04h-.16l-.04.04h-.16l-.11-.04-.16-.04-.12-.04-.12-.07-.12-.08-.12-.08-.08-.12-.08-.12-.04-.16-.04-.12-.04-.15-.04-.16v-.48l.04-.12.04-.2.08-.15.04-.16.08-.16.08-.12.08-.12.12-.11.08-.08.12-.12.12-.04.12-.08.07-.04.16-.08h.12l.12-.04h.2l.08.04h.16l.08.04.04.04.08.04h.04l.04.04.04.04.04.04.04.04.04.04.04.04v.04l.04.04.2-1.19h.84L38 17.71z" fill="#fff"/><path d="M38 17.71h-.87l.08-.31v-.04l-.04.08-.04.04-.08.04-.04.04-.08.04-.04.04-.04.03-.08.04h-.04l-.08.04h-.16l-.04.04h-.16l-.11-.04-.16-.04-.12-.04-.12-.07-.12-.08-.12-.08-.08-.12-.08-.12-.04-.16-.04-.12-.04-.15-.04-.16v-.48l.04-.12.04-.2.08-.15.04-.16.08-.16.08-.12.08-.12.12-.11.08-.08.12-.12.12-.04.12-.08.07-.04.16-.08h.12l.12-.04h.2l.08.04h.16l.08.04.04.04.08.04h.04l.04.04.04.04.04.04.04.04.04.04.04.04v.04l.04.04.2-1.19h.84L38 17.71z" stroke="#fff" stroke-width=".22" stroke-miterlimit="2.61"/><path fill-rule="evenodd" clip-rule="evenodd" d="M36.61 17h.16l.08-.04.08-.04.04-.04.08-.04.04-.04.08-.07.04-.04.04-.08.04-.04.04-.08v-.08l.04-.08.04-.08v-.16l.04-.12v-.07l-.04-.08v-.16l-.04-.04v-.08l-.04-.08-.04-.04-.04-.04-.04-.04-.04-.04-.08-.04h-.04l-.08-.04-.08.04h-.08l-.04.04h-.08l-.08.04-.04.08-.04.04-.08.04-.04.08-.04.08-.04.04-.04.08-.03.08v.11l-.04.08v.08l-.04.12.04.16v.16l.04.12.07.11.08.12.08.08h.12z" fill="#FBB231"/><path fill-rule="evenodd" clip-rule="evenodd" d="M18.05 17.08l-.12.63h-.76v-.11l.04-.08v-.16l-.04.08-.04.04-.04.04-.08.04-.08.04-.08.04-.08.04-.08.03h-.08l-.08.04h-.08l-.12.04H16.1l-.08-.04h-.12l-.08-.04-.08-.04-.08-.03-.08-.08-.04-.04-.08-.04-.04-.08-.04-.04v-.08l-.04-.08v-.04l-.04-.08v-.31l.04-.12v-.12l.04-.08.04-.12.08-.08.04-.08.08-.08.08-.08.08-.04.08-.07.12-.04.08-.04.12-.04.07-.04h.28l.04-.04h.36l.04-.04h.08l.08.04h.28v-.04l.04-.04v-.2l-.04-.04-.04-.08-.04-.04-.04-.04h-.08l-.08-.04h-.72l-.12.04H16.14l-.08.04h-.08l-.08.04h-.04l-.04.04h-.04l.2-.71.08-.04h.08l.08-.04h.04l.07-.04h.24l.08-.04h.68l.12.04h.16l.12.04.08.04.08.04.12.04.08.08.08.04.04.08.08.08.04.12.04.07v.36l-.32 1.58z" fill="#fff"/><path d="M18.05 17.08l-.12.63h-.76v-.11l.04-.08v-.16l-.04.08-.04.04-.04.04-.08.04-.08.04-.08.04-.08.04-.08.03h-.08l-.08.04h-.08l-.12.04H16.1l-.08-.04h-.12l-.08-.04-.08-.04-.08-.03-.08-.08-.04-.04-.08-.04-.04-.08-.04-.04v-.08l-.04-.08v-.04l-.04-.08v-.31l.04-.12v-.12l.04-.08.04-.12.08-.08.04-.08.08-.08.08-.08.08-.04.08-.07.12-.04.08-.04.12-.04.07-.04h.28l.04-.04h.36l.04-.04h.08l.08.04h.28v-.04l.04-.04v-.2l-.04-.04-.04-.08-.04-.04-.04-.04h-.08l-.08-.04h-.72l-.12.04H16.14l-.08.04h-.08l-.08.04h-.04l-.04.04h-.04l.2-.71.08-.04h.08l.08-.04h.04l.07-.04h.24l.08-.04h.68l.12.04h.16l.12.04.08.04.08.04.12.04.08.08.08.04.04.08.08.08.04.12.04.07v.36l-.32 1.58z" stroke="#fff" stroke-width=".22" stroke-miterlimit="2.61"/><path fill-rule="evenodd" clip-rule="evenodd" d="M17.33 16.3v-.05h-.12l-.04-.04h-.08l-.04.04H16.81l-.04.04h-.08l-.04.04h-.08l-.04.04h-.04l-.04.04-.04.04-.04.04h-.04l-.04.04v.04l-.04.04v.12l-.03.07.03.08.04.08.04.04.04.04h.04l.04.04h.16l.08-.04h.12l.08-.04.04-.04h.08l.04-.04.04-.04.04-.04.04-.04v-.03h.04v-.08l.04-.04v-.08l.04-.12v-.08l.04-.08z" fill="#EC1C2E"/><path fill-rule="evenodd" clip-rule="evenodd" d="M11.67 17.71h-.8l.68-3.91H13l.12 2.33 1-2.33h1.5l-.71 3.91h-.84l.52-2.92h-.04l-1.2 2.92h-.95v-.43l-.04-.48-.04-.5-.04-.56v-.48l-.04-.31v-.16h-.04l-.52 2.92z" fill="#fff"/><path d="M11.67 17.71h-.8l.68-3.91H13l.12 2.33 1-2.33h1.5l-.71 3.91h-.84l.52-2.92h-.04l-1.2 2.92h-.95v-.43l-.04-.48-.04-.5-.04-.56v-.48l-.04-.31v-.16h-.04l-.52 2.92z" stroke="#fff" stroke-width=".22" stroke-miterlimit="2.61"/><path fill-rule="evenodd" clip-rule="evenodd" d="M33.07 17.08l-.12.63h-.76v-.31l-.04.04-.04.04-.08.04-.04.04-.08.04-.04.04-.08.04-.08.03h-.08l-.08.04h-.12l-.08.04H31.12l-.08-.04h-.12l-.08-.04-.08-.04-.08-.03-.08-.08-.08-.04-.04-.04-.04-.08-.04-.04v-.08l-.04-.08v-.04l-.04-.08v-.31l.04-.12v-.12l.04-.08.04-.12.08-.08.04-.08.08-.08.08-.08.08-.04.08-.07.12-.04.08-.04.12-.04.07-.04h.28l.04-.04h.32l.04-.04h.12l.08.04h.28v-.08l.04-.08v-.04l-.04-.08v-.04l-.04-.08-.04-.04-.08-.04h-.04l-.08-.04h-.72l-.12.04H31.16l-.08.04H31l-.08.04h-.04l-.04.04h-.04l.2-.71.08-.04h.08l.08-.04h.04l.07-.04h.24l.08-.04h.68l.08.04h.2l.08.04.12.04.08.04.08.04.08.08.08.04.08.08.08.08.04.12.04.07v.36l-.32 1.58z" fill="#fff"/><path fill-rule="evenodd" clip-rule="evenodd" d="M32.95 17.75l.12-.67h-.04l-.12.63h.04v.04z" fill="#fff"/><path fill-rule="evenodd" clip-rule="evenodd" d="M32.15 17.71l.04.04h.76v-.04h-.8v.04h.04l-.04-.04zM32.2 17.4v-.04l-.05.08v.27h.04v-.35.04z" fill="#fff"/><path fill-rule="evenodd" clip-rule="evenodd" d="M31.04 17.8h.39l.12-.05h.08l.08-.04.08-.04.08-.03h.08l.04-.08.08-.04.04-.04.04-.04.04-.04v-.04l-.04.08-.04.04-.08.04-.04.04-.08.04-.08.04h-.08l-.04.04-.08.03h-.12l-.08.04h-.39v.04zM30.28 16.88v.04l.04.08v.16l.04.04v.08l.04.08.04.04.04.08.04.04.08.08.04.04.08.03.12.04.08.04.12.04v-.04l-.12-.04-.08-.04-.08-.03-.08-.04-.08-.04-.04-.04-.04-.08-.04-.04-.04-.08-.04-.04-.04-.08V17l-.04-.08v-.04h-.04zM31.4 15.74h-.13l-.11.04-.08.04-.12.04-.08.04-.08.04-.08.07-.08.08-.08.08-.08.08-.04.08-.04.12-.04.08-.04.12v.12l-.04.11h.04l.04-.11v-.12l.04-.12.04-.08.04-.12.04-.08.08-.08.04-.08.08-.04.08-.08.12-.03.08-.08.08-.04h.12l.07-.04.12-.04z" fill="#fff"/><path fill-rule="evenodd" clip-rule="evenodd" d="M32 15.66h-.25l-.08.04h-.28v.04h.28l.08-.04H32v-.04z" fill="#fff"/><path fill-rule="evenodd" clip-rule="evenodd" d="M32.43 15.7v-.04H31.99v.04H32.43zM32.43 15.5v.2l.04-.04v-.16h-.04zM32.07 15.18l.08.04h.08l.04.04.04.04.04.04.04.04.04.04v.08h.04v-.08l-.04-.04-.04-.08-.04-.04-.04-.04-.08-.04h-.08l-.08-.04v.04zM30.8 15.34v.04l.04-.04h.04l.08-.04H31l.08-.04h.16l.07-.04h.2l.12-.04H32.07l-.08-.04h-.28l-.08.04h-.32l-.07.04h-.16l-.08.04h-.08l-.04.04h-.04l-.04.04h.04-.04z" fill="#fff"/><path fill-rule="evenodd" clip-rule="evenodd" d="M31 14.6v.03l-.2.71h.04l.2-.71-.04-.04v.04-.04zM32.35 14.47h-.84l-.08.04h-.16l-.03.04h-.08l-.08.04H31l.04.04h.04l.08-.04.08-.04H31.35l.08-.04H32.35v-.04zM33.39 15.5l.04-.12v-.12l-.04-.12-.04-.11-.04-.08-.08-.08-.04-.08-.08-.08-.08-.04-.12-.04-.08-.04-.12-.04-.08-.04-.08-.04h-.2v.04h.16l.12.04.08.04h.08l.12.08.08.04.08.04.08.08.08.08.04.08.04.08.04.07.04.12v.12l-.04.08.04.04z" fill="#fff"/><path fill-rule="evenodd" clip-rule="evenodd" d="M33.07 17.08l.32-1.58-.04-.04-.32 1.62h.04z" fill="#fff"/><path fill-rule="evenodd" clip-rule="evenodd" d="M32.31 16.3v-.05h-.04l-.04-.04h-.12l-.08.04h-.2l-.04.04h-.12l-.04.04h-.04l-.04.04h-.04l-.04.04h-.04l-.04.04-.04.04v.04l-.04.04-.04.04v.27l.04.08V17l.08.04h.04l.04.04h.16l.08-.04h.08l.08-.04h.04l.08-.04.04-.04.04-.04h.04l.04-.04.04-.04.04-.03v-.04l.04-.04v-.08l.04-.08v-.24z" fill="#FBB231"/><path fill-rule="evenodd" clip-rule="evenodd" d="M38.57 17.32v-.16l.08-.08.04-.04.04-.04.07-.04.08-.04h.16l.08.04.08.04.08.04.04.04.04.08.04.08v.08h-.08v-.04l-.04-.08-.04-.04-.04-.08-.04-.04-.04-.04h-.28l-.08.04-.03.04-.04.08v.04l-.04.08v.04h-.08z" fill="#fff"/><path fill-rule="evenodd" clip-rule="evenodd" d="M38.84 17.32v-.16h.28v.08h.04l-.04.04v.04H39h.04l.04-.04v-.08h-.2v.12h-.04zM38.57 17.32v.2l.08.08.04.04.04.04.07.03.08.04h.16l.08-.04.08-.04.08-.03.04-.04.04-.08.04-.08v-.12h-.08v.08l-.04.08-.04.04-.04.08-.04.04-.04.04h-.28l-.08-.04-.03-.04-.04-.08v-.04l-.04-.08v-.08h-.08z" fill="#fff"/><path fill-rule="evenodd" clip-rule="evenodd" d="M38.84 17.32v.2h.04v-.16h.08l.12.16h.04l-.08-.16h.04l.04-.04H38.84z" fill="#fff"/><path d="M38.57 17.36v-.08l.04-.08.04-.08.04-.08.07-.04.08-.04.08-.04h.16l.08.04.08.04.08.04.04.08.04.08.04.08v.16l-.04.08-.04.08-.04.07-.08.04-.08.04-.08.04h-.16l-.08-.04-.08-.04-.07-.04-.04-.07-.04-.08-.04-.08v-.08zm.31.16h-.08v-.36h.32v.16h-.08l.08.16h-.08l-.08-.16h-.08v.2zm.08-.2H39v-.04h-.08v.12h.04v-.08zm0 .35h.08l.08-.03.04-.04.04-.04.04-.04.04-.04v-.32l-.04-.08-.04-.04-.04-.04-.04-.04-.08-.04h-.16l-.08.04-.04.04-.03.04-.04.04-.04.08v.32l.04.04.04.04.03.04.04.04.08.03h.08z" stroke="#fff" stroke-width=".22" stroke-miterlimit="2.61"/><path fill-rule="evenodd" clip-rule="evenodd" d="M33.27 17.71h.87l.28-1.7.04-.04v-.07l.04-.08v-.04l.04-.08.04-.08.04-.04.04-.08.08-.04.04-.04.08-.04.08-.04.08-.04.08-.04H35.42l.12-.79-.08.04h-.16l-.08.04h-.04l-.08.04-.04.04-.08.04-.04.04-.04.04-.08.04-.04.04-.04.08-.04.04-.04.04-.04.08.08-.56h-.84l-.6 3.2z" fill="#fff"/><path d="M33.27 17.71h.87l.28-1.7.04-.04v-.07l.04-.08v-.04l.04-.08.04-.08.04-.04.04-.08.08-.04.04-.04.08-.04.08-.04.08-.04.08-.04H35.42l.12-.79-.08.04h-.16l-.08.04h-.04l-.08.04-.04.04-.08.04-.04.04-.04.04-.08.04-.04.04-.04.08-.04.04-.04.04-.04.08.08-.56h-.84l-.6 3.2z" stroke="#fff" stroke-width=".22" stroke-miterlimit="2.61"/><path fill-rule="evenodd" clip-rule="evenodd" d="M25.26 17.71h.88l.27-1.7.04-.04v-.07l.04-.08v-.04l.04-.08v-.04l.04-.04.04-.08.08-.04.04-.04.08-.04.04-.04h.12l.08-.04h.12l.12-.04v.04h.08v-.12l.04-.04v-.08l.04-.11.04-.08v-.08l.04-.04.04-.08v-.04l.04-.04.04-.08.04-.04h-.08l-.04-.04h-.04l-.08.04h-.16l-.08.04h-.08l-.04.04-.08.04-.04.04-.04.04-.08.04-.04.04-.04.04-.04.04-.04.08-.04.04-.04.08.08-.56h-.83l-.6 3.2z" fill="#fff"/><path d="M25.26 17.71h.88l.27-1.7.04-.04v-.07l.04-.08v-.04l.04-.08v-.04l.04-.04.04-.08.08-.04.04-.04.08-.04.04-.04h.12l.08-.04h.12l.12-.04v.04h.08v-.12l.04-.04v-.08l.04-.11.04-.08v-.08l.04-.04.04-.08v-.04l.04-.04.04-.08.04-.04h-.08l-.04-.04h-.04l-.08.04h-.16l-.08.04h-.08l-.04.04-.08.04-.04.04-.04.04-.08.04-.04.04-.04.04-.04.04-.04.08-.04.04-.04.08.08-.56h-.83l-.6 3.2z" stroke="#fff" stroke-width=".22" stroke-miterlimit="2.61"/><path fill-rule="evenodd" clip-rule="evenodd" d="M38.57 20.88v-.08l.08-.08.04-.04.04-.04.07-.04.08-.04h.16l.08.04.08.04.08.04.04.04.04.08.04.08h-.08l-.04-.04-.04-.08-.04-.04-.04-.04-.04-.04h-.08l-.08-.04-.04.04h-.08l-.08.04-.03.04-.04.04v.08l-.04.04h-.08z" fill="#FBB231"/><path fill-rule="evenodd" clip-rule="evenodd" d="M38.84 20.88v-.08h.28v.08h.04-.08v-.04h-.2v.04h-.04zM38.57 20.96v-.08h.08v.08h-.08zM38.84 20.96v-.08h.04v.08h.16v-.04h.04v-.04h.08l-.04.04v.04h-.28zM39.32 20.96v-.08h.08v.08h-.08zM38.57 20.96v.16l.08.07.04.08.04.04.07.04.08.04h.16l.08-.04.08-.04.08-.04.04-.08.04-.07.04-.08v-.08h-.08v.08l-.04.08-.04.03-.04.04-.04.08h-.04l-.08.04h-.12l-.08-.04h-.08l-.03-.08-.04-.04v-.03l-.04-.08v-.08h-.08z" fill="#FBB231"/><path fill-rule="evenodd" clip-rule="evenodd" d="M38.84 20.96v.16h.04V21h.08l.12.12h.04l-.08-.12.04-.04h.04-.28z" fill="#FBB231"/><path fill-rule="evenodd" clip-rule="evenodd" d="M25.38 15.46l-.04-.2-.04-.16-.08-.11-.08-.12-.08-.12-.12-.08-.12-.08-.12-.04-.12-.04-.12-.04-.12-.04h-.48l-.2.04-.2.04-.15.08-.16.08-.12.12-.12.12-.08.12-.08.11-.08.12-.04.12-.04.12-.04.12-.04.12v.67l.04.2.04.16.08.15.08.12.12.12.12.12.12.08.12.08.16.04.16.04.16.04.15.04h1.2l.04-.04.04-.04.12-.75-.08.04-.08.03-.08.04-.08.04-.08.04H23.9l-.08-.04-.07-.04-.04-.04-.04-.03-.04-.04-.04-.04-.04-.04-.04-.04-.04-.04-.04-.04-.04-.04v-.16h1.95v-.2l.04-.23.04-.24-.04-.24zm-.84.28h-1.11v-.2l.04-.08.04-.04.04-.04.04-.04.04-.04.04-.04.04-.04.04-.04.03-.04.04-.04h.32l.04.04.04.04.04.04.04.04.04.04.04.04.04.04.04.04v.24l.08.08z" fill="#fff"/></svg>