<svg xmlns="http://www.w3.org/2000/svg" width="24" height="24" viewBox="0 0 24 24" fill="none"><path d="M22 16.9V19.9C22 20.2 21.9 20.5 21.8 20.7 21.7 21 21.6 21.2 21.4 21.4 21.1 21.6 20.9 21.7 20.6 21.8 20.4 21.9 20.1 21.9 19.8 21.9 16.7 21.6 13.8 20.5 11.2 18.9 8.8 17.3 6.7 15.3 5.2 12.9 3.5 10.2 2.4 7.3 2.1 4.2 2.1 3.9 2.1 3.6 2.2 3.4 2.3 3.1 2.4 2.9 2.6 2.7 2.8 2.4 3 2.3 3.3 2.2 3.6 2.1 3.8 2 4.1 2H7.1C7.6 2 8.1 2.2 8.4 2.5 8.8 2.8 9 3.2 9.1 3.7 9.2 4.7 9.5 5.6 9.8 6.5 9.9 6.9 10 7.3 9.9 7.7 9.8 8 9.6 8.4 9.4 8.6L8.1 9.9C9.5 12.4 11.6 14.5 14.1 15.9L15.4 14.6C15.6 14.4 16 14.2 16.3 14.1 16.7 14 17.1 14.1 17.5 14.2 18.4 14.5 19.3 14.8 20.3 14.9 20.8 15 21.2 15.2 21.5 15.6 21.8 16 22 16.4 22 16.9Z" style="stroke-linejoin:round;stroke-width:2;stroke:#360F76"/></svg>