<svg width="50" height="31" viewBox="0 0 50 31" fill="none" xmlns="http://www.w3.org/2000/svg">
<path d="M49.9602 29.3393C49.9602 30.2487 49.2032 31 48.2869 31H1.67331C0.756972 31 0 30.2487 0 29.3393V1.66071C0 0.751275 0.756972 0 1.67331 0H48.3267C49.243 0 50 0.751275 50 1.66071V29.3393H49.9602Z" fill="#F9F9F9"/>
<path d="M22.9879 20.1657H20.5576L22.0716 10.834H24.5417L22.9879 20.1657Z" fill="#0066B2"/>
<path d="M18.4861 10.834L16.1753 17.2397L15.8964 15.8557L15.0598 11.6644C15.0598 11.6644 14.9801 10.834 13.9044 10.834H10.0398L10 10.9922C10 10.9922 11.1952 11.2295 12.5498 12.0598L14.7012 20.1657H17.251L21.1155 10.834H18.4861Z" fill="#0066B2"/>
<path d="M37.6892 20.1653H39.9203L37.9681 10.8732H36.0159C35.0996 10.8732 34.9004 11.5849 34.9004 11.5849L31.2749 20.1653H33.8247L34.3426 18.7813H37.4502L37.6892 20.1653ZM35.0199 16.8438L36.2948 13.3642L37.012 16.8438H35.0199Z" fill="#0066B2"/>
<path d="M31.4342 13.0877L31.7928 11.0711C31.7928 11.0711 30.7171 10.6757 29.6016 10.6757C28.4063 10.6757 25.498 11.1898 25.498 13.7599C25.498 16.1719 28.8844 16.2114 28.8844 17.4372C28.8844 18.7025 25.8565 18.4653 24.8605 17.6744L24.502 19.7701C24.502 19.7701 25.5777 20.2841 27.251 20.2841C28.9243 20.2841 31.4342 19.4142 31.4342 17.0813C31.4342 14.6693 28.0079 14.4321 28.0079 13.404C28.0478 12.376 30.3984 12.5341 31.4342 13.0877Z" fill="#0066B2"/>
<path d="M15.8964 15.8557L15.0598 11.6644C15.0598 11.6644 14.9801 10.834 13.9044 10.834H10.0398L10 10.9922C10 10.9922 11.8327 11.3876 13.6255 12.8111C15.3386 14.1555 15.8964 15.8557 15.8964 15.8557Z" fill="#F9A533"/>
</svg>
