<svg xmlns="http://www.w3.org/2000/svg" fill="none" viewBox="0 0 40 40"><path d="M19.9 40C8.9 40 0 31.1 0 20.1 0 8.9 8.9 0 19.9 0c11.1 0 20 8.9 20 19.9C40 31 31 40 19.9 40z" fill="#360F76"/><path d="M32.8 27.2c0-.1-.1-.1-.1-.2-.5-.9-1.3-1.8-2.6-3l-1-1c-.3-.3-.3-.7-.2-1.1.1-.3.5-.8 1.2-1.7.3-.6.7-.9.9-1.2 1.5-2.1 2.2-3.4 2-4l-.1-.1c-.1-.1-.2-.1-.5-.2-.2-.1-.5-.1-.8 0H27l-.1.1c-.1.1-.1.1-.1.2-.4 1.1-1 2.1-1.5 3.1-.3.5-.6 1-.9 1.4-.4.4-.6.8-.8 1-.2.2-.3.3-.5.4 0 .1-.1.2-.2.1-.1 0-.1 0-.2-.1l-.3-.3c-.1-.1-.1-.3-.1-.5v-.6-.6-.5-1.2-.9-.8-.6c0-.1-.1-.3-.1-.4-.2-.1-.2-.2-.4-.3-.1-.1-.3-.1-.4-.2-.5-.1-1-.2-1.8-.2-1.6 0-2.7.1-3.2.3-.2.1-.3.2-.5.4-.3.2-.3.3-.2.3.6.1 1 .3 1.2.5l.1.2c.1.1.1.4.2.7.1.3.1.6.1.9v1.7c0 .4-.1.8-.1 1 0 .3-.1.5-.2.7-.2.3-.2.4-.2.5 0 0 0 .1-.1.1s-.2.1-.3.1c-.1 0-.3-.1-.4-.2-.3-.1-.4-.3-.6-.5-.2-.2-.4-.6-.6-1-.2-.4-.5-.8-.7-1.3l-.2-.5c-.1-.2-.4-.6-.6-1-.2-.5-.4-1-.6-1.4-.1-.2-.2-.3-.3-.4h-.1s-.1-.1-.2-.1-.2-.1-.3-.1H8.1c-.4 0-.6.1-.8.2l-.1.1v.2c0 .1 0 .2.1.3.6 1.3 1.2 2.6 1.8 3.7.7 1.2 1.2 2.1 1.7 2.8.4.8 1 1.4 1.5 2 .5.7.8 1.1.9 1.3.1.2.3.3.4.4l.4.3c.2.2.5.6.9.8.4.3.8.6 1.4.8.5.3 1 .5 1.8.7.6.3 1.3.3 2 .3h1.5c.3 0 .6-.1.8-.4l.1-.1c0-.1.1-.1.1-.2v-.4c0-.4 0-.7.1-1 .1-.4.1-.6.2-.8.1-.1.2-.3.3-.4l.2-.2h.1c.2-.1.4 0 .8.2.3.2.5.4.8.7.2.4.5.7.9 1.1.4.4.7.6 1 .8l.3.2c.2.1.4.2.7.4.3.1.6.1.8.1l3.4-.1c.3 0 .7-.2.9-.3.2-.1.3-.2.3-.4v-.4c-.6 0-.6-.2-.6-.2z" fill="#fff"/></svg>